<svg width="1440" height="611" viewBox="0 0 1440 611" fill="none" xmlns="http://www.w3.org/2000/svg">
<g clip-path="url(#clip0_0_1970)">
<path opacity="0.8" d="M1473.48 648.603L1461.06 654M1473.48 648.603H1436.65M1473.48 648.603L1486.33 643.028M1473.48 648.603H1499.57M1461.06 654L1465.58 653.998L1470.05 653.986L1474.44 653.953L1478.68 653.889L1482.74 653.784L1486.58 653.626L1490.14 653.406L1493.44 653.126L1496.28 652.739L1498.86 652.29L1499.57 652.133V648.603M1461.06 654H1424.81M1424.81 654H1388.57M1424.81 654L1436.65 648.603M1388.57 654H1352.33M1388.57 654L1399.82 648.603M1352.33 654H1316.09M1352.33 654L1362.99 648.603M1316.09 654H1279.85M1316.09 654L1326.15 648.603M1279.85 654H1243.61M1279.85 654L1289.32 648.603M1243.61 654H1207.37M1243.61 654L1252.49 648.603M1207.37 654H1171.13M1207.37 654L1215.66 648.603M1171.13 654H1134.89M1171.13 654L1178.82 648.603M1134.89 654H1098.65M1134.89 654L1141.99 648.603M1098.65 654H1062.41M1098.65 654L1105.16 648.603M1062.41 654H1026.17M1062.41 654L1068.33 648.603M1026.17 654H989.926M1026.17 654L1027.48 652.667L1029.48 650.648L1031.49 648.603M989.926 654H953.685M989.926 654L991.095 652.667L994.66 648.603M953.685 654H917.445M953.685 654L957.828 648.603M917.445 654H881.203M917.445 654L918.762 651.996L920.097 649.969L920.545 649.287L920.996 648.603M881.203 654H844.963M881.203 654L882.302 651.996L882.672 651.324L883.042 650.648L884.163 648.603M844.963 654H808.722M844.963 654L847.331 648.603M808.722 654L808.941 653.335L809.16 652.667L810.272 649.287L810.498 648.603M808.722 654H772.482M772.482 654H736.24M772.482 654L773.665 648.603M736.24 654H700M736.24 654L736.46 651.996L736.833 648.603M700 654H663.759M700 654V648.603M663.759 654H627.518M663.759 654L663.54 651.996L663.167 648.603M627.518 654H591.278M627.518 654L626.335 648.603M591.278 654L591.059 653.335L590.84 652.667L589.728 649.287L589.502 648.603M591.278 654H555.037M555.037 654H518.796M555.037 654L552.97 649.287L552.669 648.603M518.796 654H482.555M518.796 654L517.698 651.996L517.328 651.324L516.585 649.969L516.212 649.287L515.837 648.603M482.555 654H446.315M482.555 654L481.238 651.996L479.903 649.969L479.455 649.287L479.004 648.603M446.315 654H410.074M446.315 654L442.172 648.603M410.074 654H373.833M410.074 654L408.905 652.667L405.34 648.603M373.833 654H337.593M373.833 654L368.507 648.603M337.593 654H301.352M337.593 654L331.674 648.603M301.352 654H265.111M301.352 654L294.842 648.603M265.111 654H228.87M265.111 654L258.009 648.603M228.87 654H192.63M228.87 654L221.176 648.603M192.63 654H156.389M192.63 654L184.344 648.603M156.389 654H120.148M156.389 654L147.511 648.603M120.148 654H83.9076M120.148 654L110.678 648.603M83.9076 654H47.6672M83.9076 654L73.8456 648.603M47.6672 654H11.4258M47.6672 654L37.0129 648.603M11.4258 654H-24.8146M11.4258 654L0.181059 648.603M-24.8146 654H-61.0551M-24.8146 654L-36.6516 648.603M-61.0551 654L-65.5777 653.998L-70.0536 653.986L-74.4363 653.953L-78.6815 653.889L-82.7426 653.784L-86.5764 653.626L-90.137 653.406L-93.4419 653.126L-96.2778 652.739L-98.8598 652.29L-99.5694 652.133V648.603M-61.0551 654L-73.4843 648.603M0.181059 648.603H37.0129M0.181059 648.603H-36.6516M0.181059 648.603L-11.4385 643.028M37.0129 648.603L26.0055 643.028M37.0129 648.603H73.8456M147.511 648.603H184.344M147.511 648.603H110.678M147.511 648.603L145.246 647.226L138.338 643.028M184.344 648.603L175.782 643.028M184.344 648.603H221.176M294.842 648.603H331.674M294.842 648.603H258.009M294.842 648.603L293.181 647.226L292.345 646.535L288.114 643.028M331.674 648.603L330.92 647.917L330.164 647.226L325.559 643.028M331.674 648.603H368.507M442.172 648.603L441.644 647.917L437.891 643.028M442.172 648.603H479.004M442.172 648.603H405.34M479.004 648.603L478.099 647.226L477.642 646.535L477.185 645.839L475.335 643.028M479.004 648.603H515.837M589.502 648.603H626.335M589.502 648.603H552.669M589.502 648.603L587.668 643.028M626.335 648.603L626.184 647.917L626.033 647.226L625.881 646.535L625.421 644.44L625.112 643.028M626.335 648.603H663.167M736.833 648.603H773.665M736.833 648.603H700M736.833 648.603L737.444 643.028M773.665 648.603L773.816 647.917L773.967 647.226L774.119 646.535L774.888 643.028M773.665 648.603H810.498M884.163 648.603H920.996M884.163 648.603H847.331M884.163 648.603L884.918 647.226L886.447 644.44L886.833 643.735L887.221 643.028M920.996 648.603L921.901 647.226L922.358 646.535L922.815 645.839L924.665 643.028M920.996 648.603H957.828M1031.49 648.603H1068.33M1031.49 648.603H994.66M1031.49 648.603L1032.85 647.226L1033.54 646.535L1037 643.028M1068.33 648.603L1069.08 647.917L1069.84 647.226L1074.44 643.028M1068.33 648.603H1105.16M1178.82 648.603H1215.66M1178.82 648.603H1141.99M1178.82 648.603L1180.79 647.226L1181.77 646.535L1186.77 643.028M1215.66 648.603L1224.22 643.028M1215.66 648.603H1252.49M1326.15 648.603H1362.99M1326.15 648.603H1289.32M1326.15 648.603L1336.55 643.028M1362.99 648.603L1373.99 643.028M1362.99 648.603H1399.82M-99.6985 598.134H-99.5694M-62.626 598.134L-48.5635 605.257M-62.626 598.134L-77.2273 590.739M-62.626 598.134H-20.2579M-62.626 598.134H-99.5694M-48.5635 605.257H-90.1503M-48.5635 605.257L-35.01 612.122M-48.5635 605.257H-6.97676M-90.1503 605.257L-75.8438 612.122M-90.1503 605.257H-99.5694M-90.1503 605.257L-99.5694 600.738M-48.7318 625.133H-9.32466M-48.7318 625.133L-35.8737 631.303M-48.7318 625.133H-88.1381M-48.7318 625.133L-62.0471 618.743M-9.32466 625.133L2.8571 631.303M-9.32466 625.133L-21.9387 618.743M-9.32466 625.133H30.0825M-35.8737 631.303H2.8571M-35.8737 631.303L-23.4496 637.264M-35.8737 631.303H-74.6037M2.8571 631.303H41.5871M2.8571 631.303L14.6266 637.264M-99.975 485.709H-99.5694M-65.7884 485.709L-47.6549 497.518M-65.7884 485.709L-84.8232 473.313M-65.7884 485.709H-11.0887M-65.7884 485.709H-99.5694M-47.6549 497.518L-30.36 508.781M-47.6549 497.518H5.74889M-47.6549 497.518H-99.5694M-82.5286 508.781H-30.36M-82.5286 508.781L-64.8364 519.534M-82.5286 508.781H-99.5694M-82.5286 508.781L-99.5694 498.423M-47.9272 529.813H1.93428M-47.9272 529.813L-31.7492 539.646M-47.9272 529.813H-97.7887M-47.9272 529.813L-64.8364 519.534M1.93428 529.813L17.0345 539.646M1.93428 529.813L-13.8481 519.534M1.93428 529.813H51.7966M-31.7492 539.646H17.0345M-31.7492 539.646H-80.5322M-31.7492 539.646L-16.2559 549.063M17.0345 539.646L31.4942 549.063M17.0345 539.646H65.8174M12.8418 566.749H58.6521M12.8418 566.749L26.5219 575.064M12.8418 566.749H-32.9686M12.8418 566.749L-1.40559 558.089M58.6521 566.749L71.4202 575.064M58.6521 566.749L45.3551 558.089M58.6521 566.749H104.463M26.5219 575.064H71.4202M26.5219 575.064H-18.3765M26.5219 575.064L39.6681 583.054M71.4202 575.064L83.6902 583.054M71.4202 575.064H116.319M64.4781 598.134H106.846M64.4781 598.134L76.1968 605.257M64.4781 598.134H22.1101M64.4781 598.134L52.3105 590.739M106.846 598.134L117.784 605.257M106.846 598.134L95.4897 590.739M106.846 598.134H149.214M76.1968 605.257H117.784M76.1968 605.257H34.61M76.1968 605.257L87.4915 612.122M117.784 605.257L128.325 612.122M117.784 605.257H159.37M108.896 625.133H148.303M108.896 625.133L119.047 631.303M108.896 625.133H69.4896M108.896 625.133L98.384 618.743M148.303 625.133L157.777 631.303M148.303 625.133L138.492 618.743M148.303 625.133H187.71M119.047 631.303H157.777M119.047 631.303L128.856 637.264M119.047 631.303H80.3171M157.777 631.303H196.508M157.777 631.303L166.932 637.264M-71.5453 280.977L-46.0241 304.246M-71.5453 280.977L-98.8756 256.06M-71.5453 280.977H5.60897M-71.5453 280.977H-99.5694M-46.0241 304.246L-22.1361 326.024M-46.0241 304.246H28.5783M-46.0241 304.246H-99.5694M-46.5421 365.65H21.3255M-46.5421 365.65L-24.733 383.726M-46.5421 365.65L-69.7046 346.451M-46.5421 365.65H-99.5694M21.3255 365.65L41.1515 383.726M21.3255 365.65L0.268508 346.451M21.3255 365.65H89.1931M-24.733 383.726H41.1515M-24.733 383.726H-90.6175M-24.733 383.726L-4.16161 400.777M41.1515 383.726L59.8531 400.777M41.1515 383.726H107.037M33.6647 432.13H94.2412M33.6647 432.13L51.0945 446.575M33.6647 432.13H-26.911M33.6647 432.13L15.2738 416.885M94.2412 432.13L110.086 446.575M94.2412 432.13L77.5211 416.885M94.2412 432.13H154.817M51.0945 446.575H110.086M51.0945 446.575H-7.89709M51.0945 446.575L67.6347 460.285M110.086 446.575L125.123 460.285M110.086 446.575H169.077M98.309 485.709H153.009M98.309 485.709L112.557 497.518M98.309 485.709H43.6102M98.309 485.709L83.3538 473.313M153.009 485.709L165.961 497.518M153.009 485.709L139.412 473.313M153.009 485.709H207.708M112.557 497.518H165.961M112.557 497.518H59.1535M112.557 497.518L126.146 508.781M165.961 497.518L178.314 508.781M165.961 497.518H219.365M151.52 529.813H201.382M151.52 529.813L163.384 539.646M151.52 529.813H101.658M151.52 529.813L139.12 519.534M201.382 529.813L212.168 539.646M201.382 529.813L190.109 519.534M201.382 529.813H251.243M163.384 539.646H212.168M163.384 539.646H114.601M163.384 539.646L174.745 549.063M212.168 539.646L222.496 549.063M212.168 539.646H260.951M196.084 566.749H241.894M196.084 566.749L206.116 575.064M196.084 566.749H150.274M196.084 566.749L185.636 558.089M241.894 566.749L243.055 567.806L251.014 575.064M241.894 566.749L232.397 558.089M241.894 566.749H287.705M206.116 575.064H251.014M206.116 575.064H161.218M206.116 575.064L215.757 583.054M251.014 575.064L259.779 583.054M251.014 575.064H295.913M233.95 598.134H276.319M233.95 598.134L242.545 605.257M233.95 598.134H191.582M233.95 598.134L225.027 590.739M276.319 598.134L284.131 605.257M276.319 598.134L273.313 595.393L268.207 590.739M276.319 598.134H318.687M242.545 605.257H284.131M242.545 605.257H200.958M242.545 605.257L250.827 612.122M284.131 605.257L291.661 612.122M284.131 605.257H325.718M266.523 625.133H305.931M266.523 625.133L273.968 631.303M266.523 625.133H227.117M266.523 625.133L258.815 618.743M305.931 625.133L311.029 629.78L311.865 630.543L312.699 631.303M305.931 625.133L298.923 618.743M305.931 625.133H345.338M273.968 631.303H312.699M273.968 631.303L281.161 637.264M273.968 631.303H235.238M312.699 631.303H351.429M312.699 631.303L319.237 637.264M-43.5912 15.9131H62.6366M-43.5912 15.9131L-10.1426 59.4787M-43.5912 15.9131L-80.3464 -31.9601M-43.5912 15.9131L-99.5694 15.9122M62.6366 15.9131L91.307 59.4787M62.6366 15.9131L31.1319 -31.9601M62.6366 15.9131H168.864M-10.1426 59.4787H91.307M-10.1426 59.4787L20.4268 99.2936M-10.1426 59.4787H-99.5694M91.307 59.4787L117.509 99.2936M91.307 59.4787H192.756M74.2953 169.456H163.682M74.2953 169.456L98.1491 200.525M74.2953 169.456H-15.0907M74.2953 169.456L48.4726 135.822M163.682 169.456L184.128 200.525M163.682 169.456L141.548 135.822M163.682 169.456H253.068M98.1491 200.525H184.128M98.1491 200.525H12.1704M98.1491 200.525L120.251 229.312M184.128 200.525L203.073 229.312M184.128 200.525H270.106M159.918 280.977H237.073M159.918 280.977L177.784 304.246M159.918 280.977H82.7633M159.918 280.977L140.787 256.06M237.073 280.977L252.386 304.246M237.073 280.977L220.675 256.06M237.073 280.977H314.227M177.784 304.246H252.386M177.784 304.246H103.181M177.784 304.246L194.505 326.024M252.386 304.246L266.718 326.024M252.386 304.246H326.988M224.928 365.65H292.795M224.928 365.65L238.807 383.726M224.928 365.65H157.061M224.928 365.65L210.188 346.451M292.795 365.65L304.691 383.726M292.795 365.65L280.161 346.451M292.795 365.65H360.663M238.807 383.726H304.691M238.807 383.726H172.921M238.807 383.726L251.897 400.777M304.691 383.726L315.912 400.777M304.691 383.726H370.576M275.968 432.13H336.545M275.968 432.13L287.06 446.575M275.968 432.13H215.393M275.968 432.13L264.265 416.885M336.545 432.13L346.051 446.575M336.545 432.13L326.513 416.885M336.545 432.13H397.121M287.06 446.575H346.051M287.06 446.575H228.068M287.06 446.575L297.586 460.285M346.051 446.575L355.073 460.285M346.051 446.575H405.043M317.106 485.709H371.805M317.106 485.709L326.173 497.518M317.106 485.709H262.407M317.106 485.709L307.589 473.313M371.805 485.709L379.577 497.518M371.805 485.709L363.647 473.313M371.805 485.709H426.504M326.173 497.518H379.577M326.173 497.518H272.768M326.173 497.518L334.82 508.781M379.577 497.518L386.989 508.781M379.577 497.518H432.98M350.967 529.813H400.829M350.967 529.813L358.517 539.646M350.967 529.813H301.106M350.967 529.813L343.076 519.534M400.829 529.813L407.3 539.646M400.829 529.813L394.066 519.534M400.829 529.813H450.691M358.517 539.646H407.3M358.517 539.646H309.733M358.517 539.646L365.748 549.063M407.3 539.646L413.498 549.063M407.3 539.646H456.084M379.326 566.749H425.137M379.326 566.749L385.71 575.064M379.326 566.749H333.516M379.326 566.749L372.677 558.089M425.137 566.749L424.437 565.686L419.438 558.089M425.137 566.749L430.608 575.064M425.137 566.749H470.948M385.71 575.064H430.608M385.71 575.064H340.812M385.71 575.064L391.845 583.054M430.608 575.064L435.867 583.054M430.608 575.064H475.508M403.423 598.134H445.791M403.423 598.134L408.892 605.257M403.423 598.134H361.055M403.423 598.134L397.745 590.739M445.791 598.134L450.479 605.257M445.791 598.134L443.988 595.393L442.771 593.545L440.925 590.739M445.791 598.134H488.159M408.892 605.257H450.479M408.892 605.257H367.305M408.892 605.257L414.162 612.122M450.479 605.257L452.193 607.861L453.322 609.577L454.997 612.122M450.479 605.257H492.065M424.152 625.133H463.558M424.152 625.133L427.72 629.78L428.889 631.303M424.152 625.133H384.745M424.152 625.133L419.868 619.554L419.246 618.743M463.558 625.133L466.617 629.78L467.119 630.543L467.619 631.303M463.558 625.133L461.474 621.966L459.354 618.743M463.558 625.133H502.965M428.889 631.303H467.619M428.889 631.303L433.466 637.264M428.889 631.303H390.159M467.619 631.303H506.349M467.619 631.303L471.542 637.264M381.318 15.9131H487.545M381.318 15.9131L395.653 59.4787M381.318 15.9131H275.091M381.318 15.9131L365.566 -31.9601M487.545 15.9131L497.103 59.4787M487.545 15.9131L477.044 -31.9601M487.545 15.9131H593.773M395.653 59.4787H497.103M395.653 59.4787H294.204M395.653 59.4787L408.754 99.2936M497.103 59.4787L505.836 99.2936M497.103 59.4787H598.551M431.841 169.456H521.227M431.841 169.456L442.064 200.525M431.841 169.456H342.454M431.841 169.456L420.774 135.822M521.227 169.456L528.043 200.525M521.227 169.456L513.849 135.822M521.227 169.456H610.614M442.064 200.525H528.043M442.064 200.525H356.085M442.064 200.525L451.536 229.312M528.043 200.525L534.358 229.312M528.043 200.525H614.021M468.536 280.977H545.691M468.536 280.977L476.193 304.246M468.536 280.977H391.382M468.536 280.977L460.337 256.06M545.691 280.977L550.795 304.246M545.691 280.977L540.225 256.06M545.691 280.977H622.846M476.193 304.246H550.795M476.193 304.246H401.591M476.193 304.246L483.359 326.024M550.795 304.246L555.573 326.024M550.795 304.246H625.398M496.398 365.65H564.265M496.398 365.65L502.346 383.726M496.398 365.65H428.53M496.398 365.65L490.081 346.451M564.265 365.65L568.23 383.726M564.265 365.65L560.054 346.451M564.265 365.65H632.132M502.346 383.726H568.23M502.346 383.726H436.461M502.346 383.726L507.956 400.777M568.23 383.726L571.971 400.777M568.23 383.726H634.116M518.272 432.13H578.849M518.272 432.13L523.025 446.575M518.272 432.13H457.696M518.272 432.13L513.256 416.885M578.849 432.13L582.017 446.575M578.849 432.13L575.505 416.885M578.849 432.13H639.424M523.025 446.575H582.017M523.025 446.575H464.035M523.025 446.575L527.537 460.285M582.017 446.575L585.024 460.285M582.017 446.575H641.008M535.903 485.709H590.601M535.903 485.709L539.788 497.518M535.903 485.709H481.204M535.903 485.709L531.824 473.313M590.601 485.709L593.193 497.518M590.601 485.709L587.882 473.313M590.601 485.709H645.301M539.788 497.518H593.193M539.788 497.518H486.384M539.788 497.518L541.199 501.804L543.494 508.781M593.193 497.518L595.663 508.781M593.193 497.518H646.596M550.415 529.813H600.276M550.415 529.813L553.651 539.646M550.415 529.813H500.552M550.415 529.813L547.893 522.147L547.032 519.534M600.276 529.813L601.097 533.551L602.433 539.646M600.276 529.813L598.022 519.534M600.276 529.813H650.139M553.651 539.646L554.044 540.845L556.749 549.063M553.651 539.646H602.433M553.651 539.646H504.867M602.433 539.646L603.219 543.224L603.477 544.405L603.735 545.578L604.499 549.063M602.433 539.646H651.217M562.568 566.749H608.379M562.568 566.749L563.95 570.948L564.291 571.985L564.63 573.017L564.969 574.042L565.304 575.064M562.568 566.749H516.758M562.568 566.749L559.719 558.089M608.379 566.749L609.754 573.017L609.979 574.042L610.203 575.064M608.379 566.749L606.48 558.089M608.379 566.749H654.19M565.304 575.064H610.203M565.304 575.064H520.406M565.304 575.064L566.96 580.095L567.286 581.087L567.934 583.054M610.203 575.064L611.306 580.095L611.524 581.087L611.74 582.073L611.956 583.054M610.203 575.064H655.102M572.896 598.134H615.264M572.896 598.134L575.24 605.257M572.896 598.134H530.527M572.896 598.134L572.295 596.312L571.385 593.545L570.462 590.739M615.264 598.134L615.064 597.225L613.847 591.679L613.642 590.739M615.264 598.134L616.826 605.257M615.264 598.134H657.632M575.24 605.257H616.826M575.24 605.257H533.653M575.24 605.257L577.499 612.122M616.826 605.257L617.398 607.861L617.586 608.721L617.774 609.577L618.332 612.122M616.826 605.257H658.413M581.78 625.133H621.186M581.78 625.133L583.309 629.78L583.809 631.303M581.78 625.133H542.372M581.78 625.133L580.999 622.763L580.738 621.966L580.474 621.166L579.676 618.743M621.186 625.133L621.358 625.916L621.699 627.472L622.038 629.014L622.539 631.303M621.186 625.133L620.491 621.966L620.316 621.166L619.962 619.554L619.785 618.743M621.186 625.133H660.593M583.809 631.303H622.539M583.809 631.303L585.529 636.53L585.772 637.264M583.809 631.303H545.079M622.539 631.303L622.706 632.059L622.871 632.812L623.036 633.562L623.199 634.309L623.686 636.53L623.848 637.264M622.539 631.303H661.27M806.227 15.9131H912.455M806.227 15.9131L801.449 59.4787M806.227 15.9131H700M806.227 15.9131L811.478 -31.9601M912.455 15.9131L902.898 59.4787M912.455 15.9131L922.956 -31.9601M912.455 15.9131H1018.68M801.449 59.4787H902.898M801.449 59.4787H700M801.449 59.4787L797.082 99.2936M902.898 59.4787L894.164 99.2936M902.898 59.4787H1004.35M789.386 169.456H878.773M789.386 169.456L785.979 200.525M789.386 169.456H700M789.386 169.456L793.076 135.822M878.773 169.456L871.957 200.525M878.773 169.456L886.151 135.822M878.773 169.456H968.159M785.979 200.525H871.957M785.979 200.525H700M785.979 200.525L782.821 229.312M871.957 200.525L865.642 229.312M871.957 200.525H957.936M777.154 280.977H854.309M777.154 280.977L774.602 304.246M777.154 280.977H700M777.154 280.977L779.888 256.06M854.309 280.977L849.205 304.246M854.309 280.977L859.775 256.06M854.309 280.977H931.464M774.602 304.246H849.205M774.602 304.246H700M774.602 304.246L772.214 326.024M849.205 304.246L844.427 326.024M849.205 304.246H923.807M767.868 365.65H835.735M767.868 365.65L765.884 383.726M767.868 365.65H700M767.868 365.65L769.973 346.451M835.735 365.65L831.77 383.726M835.735 365.65L839.946 346.451M835.735 365.65H903.602M765.884 383.726H831.77M765.884 383.726H700M765.884 383.726L764.015 400.777M831.77 383.726L828.029 400.777M831.77 383.726H897.654M760.576 432.13H821.151M760.576 432.13L758.992 446.575M760.576 432.13H700M760.576 432.13L762.248 416.885M821.151 432.13L817.983 446.575M821.151 432.13L824.495 416.885M821.151 432.13H881.728M758.992 446.575H817.983M758.992 446.575H700M758.992 446.575L757.487 460.285M817.983 446.575L814.976 460.285M817.983 446.575H876.975M754.699 485.709H809.399M754.699 485.709L753.404 497.518M754.699 485.709H700M754.699 485.709L756.059 473.313M809.399 485.709L806.807 497.518M809.399 485.709L812.118 473.313M809.399 485.709H864.097M753.404 497.518H806.807M753.404 497.518H700M753.404 497.518L752.169 508.781M806.807 497.518L804.337 508.781M806.807 497.518H860.212M749.862 529.813H799.724M749.862 529.813L748.783 539.646M749.862 529.813H700M749.862 529.813L750.989 519.534M799.724 529.813L797.831 538.44L797.567 539.646M799.724 529.813L801.978 519.534M799.724 529.813H849.585M748.783 539.646L748.652 540.845L747.75 549.063M748.783 539.646H797.567M748.783 539.646H700M797.567 539.646L796.781 543.224L796.523 544.405L796.265 545.578L795.501 549.063M797.567 539.646H846.349M745.81 566.749H791.621M745.81 566.749L744.898 575.064M745.81 566.749H700M745.81 566.749L746.162 563.543L746.281 562.464L746.399 561.379L746.639 559.191L746.761 558.089M791.621 566.749L790.246 573.017L789.797 575.064M791.621 566.749L793.52 558.089M791.621 566.749H837.432M744.898 575.064H789.797M744.898 575.064H700M744.898 575.064L744.022 583.054M789.797 575.064L788.694 580.095L788.476 581.087L788.26 582.073L788.044 583.054M789.797 575.064H834.696M742.368 598.134H784.736M742.368 598.134L741.587 605.257M742.368 598.134H700M742.368 598.134L743.179 590.739M784.736 598.134L784.936 597.225L786.153 591.679L786.358 590.739M784.736 598.134L783.174 605.257M784.736 598.134H827.104M741.587 605.257H783.174M741.587 605.257H700M741.587 605.257L740.834 612.122M783.174 605.257L782.602 607.861L782.414 608.721L782.226 609.577L781.668 612.122M783.174 605.257H824.76M739.407 625.133H778.814M739.407 625.133L738.73 631.303M739.407 625.133H700M739.407 625.133L740.108 618.743M778.814 625.133L778.642 625.916L778.3 627.472L778.131 628.245L777.794 629.78L777.627 630.543L777.46 631.303M778.814 625.133L779.509 621.966L779.684 621.166L780.038 619.554L780.215 618.743M778.814 625.133H818.221M738.73 631.303L738.648 632.059L738.564 632.812L738.483 633.562L738.076 637.264M738.73 631.303H777.46M738.73 631.303H700M777.46 631.303H816.191M777.46 631.303L777.129 632.812L776.964 633.562L776.801 634.309L776.314 636.53L776.152 637.264M1231.14 15.9131H1337.36M1231.14 15.9131L1207.24 59.4787M1231.14 15.9131H1124.91M1231.14 15.9131L1257.39 -31.9601M1337.36 15.9131L1308.69 59.4787M1337.36 15.9131L1368.87 -31.9601M1337.36 15.9131H1443.59M1207.24 59.4787H1308.69M1207.24 59.4787H1105.8M1207.24 59.4787L1185.41 99.2936M1308.69 59.4787L1282.49 99.2936M1308.69 59.4787H1410.14M1146.93 169.456H1236.32M1146.93 169.456L1129.89 200.525M1146.93 169.456H1057.55M1146.93 169.456L1165.38 135.822M1236.32 169.456L1215.87 200.525M1236.32 169.456L1258.45 135.822M1236.32 169.456H1325.7M1129.89 200.525H1215.87M1129.89 200.525H1043.91M1129.89 200.525L1114.11 229.312M1215.87 200.525L1196.93 229.312M1215.87 200.525H1301.85M1085.77 280.977H1162.93M1085.77 280.977L1073.01 304.246M1085.77 280.977H1008.62M1085.77 280.977L1099.44 256.06M1162.93 280.977L1147.61 304.246M1162.93 280.977L1179.33 256.06M1162.93 280.977H1240.08M1073.01 304.246H1147.61M1073.01 304.246H998.409M1073.01 304.246L1061.07 326.024M1147.61 304.246L1133.28 326.024M1147.61 304.246H1222.22M1039.34 365.65H1107.2M1039.34 365.65L1029.42 383.726M1039.34 365.65H971.47M1039.34 365.65L1049.87 346.451M1107.2 365.65L1095.31 383.726M1107.2 365.65L1119.84 346.451M1107.2 365.65H1175.07M1029.42 383.726H1095.31M1029.42 383.726H963.539M1029.42 383.726L1020.07 400.777M1095.31 383.726L1084.09 400.777M1095.31 383.726H1161.19M1002.88 432.13H1063.46M1002.88 432.13L994.957 446.575M1002.88 432.13H942.304M1002.88 432.13L1011.24 416.885M1063.46 432.13L1053.95 446.575M1063.46 432.13L1073.49 416.885M1063.46 432.13H1124.03M994.957 446.575H1053.95M994.957 446.575H935.965M994.957 446.575L987.439 460.285M1053.95 446.575L1044.93 460.285M1053.95 446.575H1112.94M973.496 485.709H1028.19M973.496 485.709L967.019 497.518M973.496 485.709H918.796M973.496 485.709L980.294 473.313M1028.19 485.709L1020.42 497.518M1028.19 485.709L1036.35 473.313M1028.19 485.709H1082.89M967.019 497.518H1020.42M967.019 497.518H913.616M967.019 497.518L960.843 508.781M1020.42 497.518L1013.01 508.781M1020.42 497.518H1073.83M949.309 529.813L950 528.553L950.695 527.286L954.945 519.534M949.309 529.813H999.171M949.309 529.813L943.916 539.646M949.309 529.813H899.448M999.171 529.813L992.7 539.646M999.171 529.813L1005.93 519.534M999.171 529.813H1049.03M943.916 539.646H992.7M943.916 539.646H895.133M943.916 539.646L938.752 549.063M992.7 539.646L986.502 549.063M992.7 539.646H1041.48M929.052 566.749H974.864M929.052 566.749L924.492 575.064M929.052 566.749H883.242M929.052 566.749L933.802 558.089M974.864 566.749L971.417 571.985L969.392 575.064M974.864 566.749L980.562 558.089M974.864 566.749H1020.67M924.492 575.064H969.392M924.492 575.064H879.594M924.492 575.064L920.649 582.073L920.111 583.054M969.392 575.064L964.133 583.054M969.392 575.064H1014.29M911.841 598.134H954.209M911.841 598.134L910.851 599.941L907.935 605.257M911.841 598.134H869.473M911.841 598.134L912.84 596.312L914.868 592.614L915.896 590.739M954.209 598.134L949.521 605.257M954.209 598.134L956.012 595.393L957.229 593.545L959.075 590.739M954.209 598.134H996.577M907.935 605.257H949.521M907.935 605.257H866.347M907.935 605.257L905.098 610.43L904.169 612.122M949.521 605.257L947.807 607.861L946.678 609.577L945.003 612.122M949.521 605.257H991.108M897.035 625.133H936.442M897.035 625.133L894.906 629.014L893.651 631.303M897.035 625.133H857.628M897.035 625.133L900.539 618.743M936.442 625.133L933.383 629.78L932.881 630.543L932.381 631.303M936.442 625.133L938.526 621.966L940.646 618.743M936.442 625.133H975.848M893.651 631.303H932.381M893.651 631.303L892.002 634.309L891.189 635.793L890.784 636.53L890.382 637.264M893.651 631.303H854.921M932.381 631.303H971.111M932.381 631.303L928.458 637.264M1473.81 200.525H1387.83M1473.81 200.525L1445.39 229.312M1473.81 200.525H1499.57M1473.81 200.525L1499.57 174.428M1394.39 280.977H1471.55M1394.39 280.977L1371.42 304.246M1394.39 280.977H1317.24M1394.39 280.977L1418.99 256.06M1471.55 280.977L1446.02 304.246M1471.55 280.977L1498.88 256.06M1471.55 280.977H1499.57M1371.42 304.246H1446.02M1371.42 304.246H1296.82M1371.42 304.246L1349.92 326.024M1446.02 304.246L1422.14 326.024M1446.02 304.246H1499.57M1310.81 365.65H1378.67M1310.81 365.65L1292.96 383.726M1310.81 365.65H1242.94M1310.81 365.65L1329.76 346.451M1378.67 365.65L1358.85 383.726M1378.67 365.65L1399.73 346.451M1378.67 365.65H1446.54M1292.96 383.726H1358.85M1292.96 383.726H1227.08M1292.96 383.726L1276.13 400.777M1358.85 383.726L1340.15 400.777M1358.85 383.726H1424.73M1245.18 432.13H1305.76M1245.18 432.13L1230.92 446.575M1245.18 432.13H1184.61M1245.18 432.13L1260.23 416.885M1305.76 432.13L1289.91 446.575M1305.76 432.13L1322.48 416.885M1305.76 432.13H1366.34M1230.92 446.575H1289.91M1230.92 446.575H1171.93M1230.92 446.575L1217.39 460.285M1289.91 446.575L1274.88 460.285M1289.91 446.575H1348.91M1192.29 485.709H1246.99M1192.29 485.709L1180.64 497.518M1192.29 485.709H1137.59M1192.29 485.709L1204.53 473.313M1246.99 485.709L1234.04 497.518M1246.99 485.709L1260.59 473.313M1246.99 485.709H1301.69M1180.64 497.518H1234.04M1180.64 497.518H1127.23M1180.64 497.518L1169.52 508.781M1234.04 497.518L1221.69 508.781M1234.04 497.518H1287.44M1148.76 529.813H1198.62M1148.76 529.813L1139.05 539.646M1148.76 529.813H1098.89M1148.76 529.813L1158.9 519.534M1198.62 529.813L1187.83 539.646M1198.62 529.813L1209.89 519.534M1198.62 529.813H1248.48M1139.05 539.646H1187.83M1139.05 539.646H1090.27M1139.05 539.646L1129.75 549.063M1187.83 539.646L1177.5 549.063M1187.83 539.646H1236.62M1112.29 566.749H1158.1M1112.29 566.749L1104.09 575.064M1112.29 566.749H1066.48M1112.29 566.749L1120.84 558.089M1158.1 566.749L1148.99 575.064M1158.1 566.749L1167.6 558.089M1158.1 566.749H1203.92M1104.09 575.064H1148.99M1104.09 575.064H1059.19M1104.09 575.064L1096.2 583.054M1148.99 575.064L1140.22 583.054M1148.99 575.064H1193.88M1081.31 598.134H1123.68M1081.31 598.134L1074.28 605.257M1081.31 598.134H1038.94M1081.31 598.134L1083.11 596.312L1084.02 595.393L1088.61 590.739M1123.68 598.134L1115.87 605.257M1123.68 598.134L1131.79 590.739M1123.68 598.134H1166.05M1074.28 605.257H1115.87M1074.28 605.257H1032.69M1074.28 605.257L1067.51 612.122M1115.87 605.257L1108.34 612.122M1115.87 605.257H1157.46M1054.66 625.133H1094.07M1054.66 625.133L1048.57 631.303M1054.66 625.133H1015.26M1054.66 625.133L1060.97 618.743M1094.07 625.133L1088.97 629.78L1088.14 630.543L1087.3 631.303M1094.07 625.133L1101.08 618.743M1094.07 625.133H1133.48M1048.57 631.303H1087.3M1048.57 631.303L1043.41 636.53L1042.69 637.264M1048.57 631.303H1009.84M1087.3 631.303H1126.03M1087.3 631.303L1080.76 637.264M1487.49 432.13L1466.89 446.575M1487.49 432.13H1426.91M1487.49 432.13L1499.57 423.655M1487.49 432.13H1499.57M1466.89 446.575H1407.9M1466.89 446.575L1447.34 460.285M1466.89 446.575H1499.57M1411.09 485.709H1465.79M1411.09 485.709L1394.25 497.518M1411.09 485.709H1356.39M1411.09 485.709L1428.76 473.313M1465.79 485.709L1447.65 497.518M1465.79 485.709L1484.82 473.313M1465.79 485.709H1499.57M1394.25 497.518H1447.65M1394.25 497.518H1340.85M1394.25 497.518L1378.19 508.781M1447.65 497.518L1430.36 508.781M1447.65 497.518H1499.57M1348.2 529.813H1398.07M1348.2 529.813L1334.18 539.646M1348.2 529.813H1298.34M1348.2 529.813L1362.86 519.534M1398.07 529.813L1382.97 539.646M1398.07 529.813L1413.85 519.534M1398.07 529.813H1447.93M1334.18 539.646H1382.97M1334.18 539.646H1285.4M1334.18 539.646L1320.75 549.063M1382.97 539.646L1368.51 549.063M1382.97 539.646H1431.75M1295.54 566.749H1341.35M1295.54 566.749L1283.68 575.064M1295.54 566.749H1249.73M1295.54 566.749L1307.88 558.089M1341.35 566.749L1328.58 575.064M1341.35 566.749L1354.64 558.089M1341.35 566.749H1387.16M1283.68 575.064H1328.58M1283.68 575.064H1238.78M1283.68 575.064L1272.29 583.054M1328.58 575.064L1316.31 583.054M1328.58 575.064H1373.48M1250.79 598.134H1293.15M1250.79 598.134L1240.63 605.257M1250.79 598.134H1208.42M1250.79 598.134L1261.33 590.739M1293.15 598.134L1282.22 605.257M1293.15 598.134L1304.51 590.739M1293.15 598.134H1335.52M1240.63 605.257H1282.22M1240.63 605.257H1199.04M1240.63 605.257L1230.84 612.122M1282.22 605.257L1271.67 612.122M1282.22 605.257H1323.8M1212.29 625.133H1251.7M1212.29 625.133L1203.49 631.303M1212.29 625.133H1172.88M1212.29 625.133L1221.4 618.743M1251.7 625.133L1242.22 631.303M1251.7 625.133L1261.51 618.743M1251.7 625.133H1291.1M1203.49 631.303H1242.22M1203.49 631.303L1194.99 637.264M1203.49 631.303H1164.76M1242.22 631.303H1280.95M1242.22 631.303L1233.07 637.264M1478.78 566.749L1463.27 575.064M1478.78 566.749H1432.97M1478.78 566.749L1494.93 558.089M1478.78 566.749H1499.57M1463.27 575.064H1418.38M1463.27 575.064L1448.38 583.054M1463.27 575.064H1499.57M1420.26 598.134H1462.63M1420.26 598.134L1406.98 605.257M1420.26 598.134H1377.89M1420.26 598.134L1434.05 590.739M1462.63 598.134L1448.56 605.257M1462.63 598.134L1477.23 590.739M1462.63 598.134H1499.57M1406.98 605.257H1448.56M1406.98 605.257H1365.39M1406.98 605.257L1394.18 612.122M1448.56 605.257L1435.01 612.122M1448.56 605.257H1490.15M1369.92 625.133H1409.32M1369.92 625.133L1358.41 631.303M1369.92 625.133H1330.51M1369.92 625.133L1381.83 618.743M1409.32 625.133L1397.14 631.303M1409.32 625.133L1421.94 618.743M1409.32 625.133H1448.73M1358.41 631.303H1397.14M1358.41 631.303L1347.3 637.264M1358.41 631.303H1319.68M1397.14 631.303H1435.87M1397.14 631.303L1385.37 637.264M1421.94 618.743L1435.01 612.122M1421.94 618.743H1462.05M1421.94 618.743H1381.83M1448.73 625.133L1435.87 631.303M1448.73 625.133L1462.05 618.743M1448.73 625.133H1488.14M1435.87 631.303H1474.6M1435.87 631.303L1423.45 637.264M1385.37 637.264H1347.3M1385.37 637.264H1423.45M1385.37 637.264L1373.99 643.028M1462.05 618.743L1475.84 612.122M1462.05 618.743H1499.57M1488.14 625.133L1474.6 631.303M1488.14 625.133L1499.57 619.922M1488.14 625.133H1499.57M1474.6 631.303L1461.53 637.264M1474.6 631.303H1499.57M1423.45 637.264H1461.53M1423.45 637.264L1411.44 643.028M1461.53 637.264L1448.88 643.028M1461.53 637.264H1499.57M1435.01 612.122H1475.84M1435.01 612.122H1394.18M1490.15 605.257L1475.84 612.122M1490.15 605.257L1499.57 600.738M1490.15 605.257H1499.57M1475.84 612.122H1499.57M1394.18 612.122H1353.34M1394.18 612.122L1381.83 618.743M1381.83 618.743H1341.72M1477.23 590.739L1492.4 583.054M1477.23 590.739H1434.05M1477.23 590.739H1499.57M1499.7 598.134H1499.57M1492.4 583.054H1448.38M1492.4 583.054L1499.57 579.422M1492.4 583.054H1499.57M1448.38 583.054H1404.35M1448.38 583.054L1434.05 590.739M1434.05 590.739H1390.87M1261.51 618.743L1271.67 612.122M1261.51 618.743H1301.62M1261.51 618.743H1221.4M1291.1 625.133L1280.95 631.303M1291.1 625.133L1301.62 618.743M1291.1 625.133H1330.51M1280.95 631.303H1319.68M1280.95 631.303L1271.14 637.264M1233.07 637.264H1271.14M1233.07 637.264L1224.22 643.028M1233.07 637.264H1194.99M1301.62 618.743L1312.51 612.122M1301.62 618.743H1341.72M1330.51 625.133L1319.68 631.303M1330.51 625.133L1341.72 618.743M1319.68 631.303L1309.22 637.264M1271.14 637.264H1309.22M1271.14 637.264L1261.66 643.028M1341.72 618.743L1353.34 612.122M1347.3 637.264H1309.22M1347.3 637.264L1336.55 643.028M1309.22 637.264L1299.11 643.028M1271.67 612.122H1312.51M1271.67 612.122H1230.84M1323.8 605.257L1312.51 612.122M1323.8 605.257L1335.52 598.134M1323.8 605.257H1365.39M1312.51 612.122H1353.34M1230.84 612.122H1190.01M1230.84 612.122L1221.4 618.743M1353.34 612.122L1365.39 605.257M1221.4 618.743H1181.29M1335.52 598.134L1347.69 590.739M1335.52 598.134H1377.89M1365.39 605.257L1377.89 598.134M1377.89 598.134L1390.87 590.739M1304.51 590.739L1316.31 583.054M1304.51 590.739H1347.69M1304.51 590.739H1261.33M1347.69 590.739L1360.33 583.054M1347.69 590.739H1390.87M1390.87 590.739L1404.35 583.054M1316.31 583.054H1360.33M1316.31 583.054H1272.29M1373.48 575.064L1360.33 583.054M1373.48 575.064L1387.16 566.749M1373.48 575.064H1418.38M1360.33 583.054H1404.35M1272.29 583.054H1228.27M1272.29 583.054L1261.33 590.739M1404.35 583.054L1418.38 575.064M1261.33 590.739H1218.15M1387.16 566.749L1401.41 558.089M1387.16 566.749H1432.97M1418.38 575.064L1432.97 566.749M1432.97 566.749L1448.17 558.089M1354.64 558.089L1368.51 549.063M1354.64 558.089H1401.41M1354.64 558.089H1307.88M1401.41 558.089L1416.26 549.063M1401.41 558.089H1448.17M1448.17 558.089L1464.01 549.063M1448.17 558.089H1494.93M1494.93 558.089H1499.57M1494.93 558.089L1499.57 555.599M1368.51 549.063H1416.26M1368.51 549.063H1320.75M1431.75 539.646L1416.26 549.063M1431.75 539.646L1447.93 529.813M1431.75 539.646H1480.53M1416.26 549.063H1464.01M1320.75 549.063H1273M1320.75 549.063L1307.88 558.089M1464.01 549.063L1480.53 539.646M1464.01 549.063H1499.57M1307.88 558.089H1261.12M1447.93 529.813L1464.84 519.534M1447.93 529.813H1497.79M1480.53 539.646L1497.79 529.813M1480.53 539.646H1499.57M1499.82 549.063H1499.57M1497.79 529.813L1499.57 528.798M1497.79 529.813H1499.57M1413.85 519.534L1430.36 508.781M1413.85 519.534H1464.84M1413.85 519.534H1362.86M1464.84 519.534L1482.53 508.781M1464.84 519.534H1499.57M1500 528.553L1499.57 528.798M1430.36 508.781H1482.53M1430.36 508.781H1378.19M1482.53 508.781H1499.57M1482.53 508.781L1499.57 498.423M1378.19 508.781H1326.02M1378.19 508.781L1362.86 519.534M1362.86 519.534H1311.87M1484.82 473.313H1428.76M1484.82 473.313L1499.57 463.71M1484.82 473.313H1499.57M1499.98 485.709H1499.57M1428.76 473.313H1372.71M1428.76 473.313L1447.34 460.285M1499.73 463.604L1499.57 463.71M1101.08 618.743L1108.34 612.122M1101.08 618.743H1141.18M1101.08 618.743H1060.97M1133.48 625.133L1126.03 631.303M1133.48 625.133L1141.18 618.743M1133.48 625.133H1172.88M1126.03 631.303H1164.76M1126.03 631.303L1118.84 637.264M1080.76 637.264H1118.84M1080.76 637.264L1078.37 639.448L1074.44 643.028M1080.76 637.264H1042.69M1141.18 618.743L1149.17 612.122M1141.18 618.743H1181.29M1172.88 625.133L1164.76 631.303M1172.88 625.133L1181.29 618.743M1164.76 631.303L1156.92 637.264M1118.84 637.264H1156.92M1118.84 637.264L1111.89 643.028M1181.29 618.743L1190.01 612.122M1194.99 637.264L1186.77 643.028M1194.99 637.264H1156.92M1156.92 637.264L1155.95 637.996L1154.04 639.448L1149.33 643.028M1108.34 612.122H1149.17M1108.34 612.122H1067.51M1157.46 605.257L1149.17 612.122M1157.46 605.257L1166.05 598.134M1157.46 605.257H1199.04M1149.17 612.122H1190.01M1067.51 612.122H1026.67M1067.51 612.122L1060.97 618.743M1190.01 612.122L1199.04 605.257M1060.97 618.743H1020.86M1166.05 598.134L1174.97 590.739M1166.05 598.134H1208.42M1199.04 605.257L1200.2 604.382L1208.42 598.134M1208.42 598.134L1218.15 590.739M1131.79 590.739L1132.83 589.794L1140.22 583.054M1131.79 590.739H1174.97M1131.79 590.739H1088.61M1174.97 590.739L1184.24 583.054M1174.97 590.739H1218.15M1218.15 590.739L1228.27 583.054M1140.22 583.054H1184.24M1140.22 583.054H1096.2M1193.88 575.064L1184.24 583.054M1193.88 575.064L1203.92 566.749M1193.88 575.064H1238.78M1184.24 583.054H1228.27M1096.2 583.054H1052.18M1096.2 583.054L1088.61 590.739M1228.27 583.054L1238.78 575.064M1088.61 590.739H1045.43M1203.92 566.749L1214.36 558.089M1203.92 566.749H1249.73M1238.78 575.064L1249.73 566.749M1249.73 566.749L1261.12 558.089M1167.6 558.089L1177.5 549.063M1167.6 558.089H1214.36M1167.6 558.089H1120.84M1214.36 558.089L1225.25 549.063M1214.36 558.089H1261.12M1261.12 558.089L1273 549.063M1177.5 549.063H1225.25M1177.5 549.063H1129.75M1236.62 539.646L1225.25 549.063M1236.62 539.646L1248.48 529.813M1236.62 539.646H1285.4M1225.25 549.063H1273M1129.75 549.063H1082M1129.75 549.063L1120.84 558.089M1273 549.063L1285.4 539.646M1120.84 558.089H1074.08M1248.48 529.813L1260.88 519.534M1248.48 529.813H1298.34M1285.4 539.646L1298.34 529.813M1298.34 529.813L1311.87 519.534M1209.89 519.534L1221.69 508.781M1209.89 519.534H1260.88M1209.89 519.534H1158.9M1260.88 519.534L1273.85 508.781M1260.88 519.534H1311.87M1311.87 519.534L1326.02 508.781M1221.69 508.781H1273.85M1221.69 508.781H1169.52M1287.44 497.518L1273.85 508.781M1287.44 497.518L1301.69 485.709M1287.44 497.518H1340.85M1273.85 508.781H1326.02M1169.52 508.781H1117.35M1169.52 508.781L1158.9 519.534M1326.02 508.781L1340.85 497.518M1158.9 519.534H1107.91M1301.69 485.709L1316.65 473.313M1301.69 485.709H1356.39M1340.85 497.518L1356.39 485.709M1356.39 485.709L1372.71 473.313M1260.59 473.313L1274.88 460.285M1260.59 473.313H1316.65M1260.59 473.313H1204.53M1316.65 473.313L1332.37 460.285M1316.65 473.313H1372.71M1372.71 473.313L1389.85 460.285M1274.88 460.285H1332.37M1274.88 460.285H1217.39M1348.91 446.575L1332.37 460.285M1348.91 446.575L1366.34 432.13M1348.91 446.575H1407.9M1332.37 460.285H1389.85M1217.39 460.285H1159.9M1217.39 460.285L1204.53 473.313M1389.85 460.285L1407.9 446.575M1389.85 460.285H1447.34M1204.53 473.313H1148.47M1366.34 432.13L1384.73 416.885M1366.34 432.13H1426.91M1407.9 446.575L1426.91 432.13M1447.34 460.285H1499.57M1426.91 432.13L1446.97 416.885M1322.48 416.885L1340.15 400.777M1322.48 416.885H1384.73M1322.48 416.885H1260.23M1384.73 416.885L1404.16 400.777M1384.73 416.885H1446.97M1446.97 416.885L1468.18 400.777M1446.97 416.885H1499.57M1340.15 400.777H1404.16M1340.15 400.777H1276.13M1424.73 383.726L1404.16 400.777M1424.73 383.726L1446.54 365.65M1424.73 383.726H1490.62M1404.16 400.777H1468.18M1276.13 400.777H1212.12M1276.13 400.777L1260.23 416.885M1468.18 400.777L1490.62 383.726M1468.18 400.777H1499.57M1260.23 416.885H1197.98M1446.54 365.65L1469.7 346.451M1446.54 365.65H1499.57M1490.62 383.726H1499.57M1490.62 383.726L1499.57 376.925M1399.73 346.451L1422.14 326.024M1399.73 346.451H1469.7M1399.73 346.451H1329.76M1469.7 346.451L1494.35 326.024M1469.7 346.451H1499.57M1422.14 326.024H1494.35M1422.14 326.024H1349.92M1494.35 326.024L1499.57 321.698M1494.35 326.024H1499.57M1349.92 326.024H1277.71M1349.92 326.024L1329.76 346.451M1329.76 346.451H1259.79M1498.88 256.06H1418.99M1498.88 256.06H1499.57M1498.88 256.06L1499.57 255.427M1418.99 256.06H1339.1M1418.99 256.06L1445.39 229.312M940.646 618.743L942.262 616.288L942.805 615.462L945.003 612.122M940.646 618.743H980.754M940.646 618.743H900.539M975.848 625.133L972.28 629.78L971.111 631.303M975.848 625.133L980.132 619.554L980.754 618.743M975.848 625.133H1015.26M971.111 631.303H1009.84M971.111 631.303L966.534 637.264M928.458 637.264H966.534M928.458 637.264L927.02 639.448L924.665 643.028M928.458 637.264H890.382M980.754 618.743L982.008 617.111L985.838 612.122M980.754 618.743H1020.86M1015.26 625.133L1009.84 631.303M1015.26 625.133L1020.86 618.743M1009.84 631.303L1005.9 635.793L1004.61 637.264M966.534 637.264H1004.61M966.534 637.264L962.109 643.028M1020.86 618.743L1026.67 612.122M1042.69 637.264L1041.96 637.996L1037 643.028M1042.69 637.264H1004.61M1004.61 637.264L1002.69 639.448L999.553 643.028M945.003 612.122H985.838M945.003 612.122H904.169M991.108 605.257L985.838 612.122M991.108 605.257L996.577 598.134M991.108 605.257H1032.69M985.838 612.122H1026.67M904.169 612.122H863.335M904.169 612.122L900.539 618.743M1026.67 612.122L1032.69 605.257M900.539 618.743H860.431M996.577 598.134L1000.1 593.545L1000.82 592.614L1002.25 590.739M996.577 598.134H1038.94M1032.69 605.257L1038.94 598.134M1038.94 598.134L1045.43 590.739M959.075 590.739L964.133 583.054M959.075 590.739H1002.25M959.075 590.739H915.896M1002.25 590.739L1008.15 583.054M1002.25 590.739H1045.43M1045.43 590.739L1052.18 583.054M964.133 583.054H1008.15M964.133 583.054H920.111M1014.29 575.064L1010.43 580.095L1009.67 581.087L1008.15 583.054M1014.29 575.064L1020.67 566.749M1014.29 575.064H1059.19M1008.15 583.054H1052.18M920.111 583.054H876.089M920.111 583.054L915.896 590.739M1052.18 583.054L1059.19 575.064M915.896 590.739H872.717M1020.67 566.749L1027.32 558.089M1020.67 566.749H1066.48M1059.19 575.064L1066.48 566.749M1066.48 566.749L1074.08 558.089M980.562 558.089L983.501 553.624L984.245 552.492L986.502 549.063M980.562 558.089H1027.32M980.562 558.089H933.802M1027.32 558.089L1034.25 549.063M1027.32 558.089H1074.08M1074.08 558.089L1082 549.063M986.502 549.063H1034.25M986.502 549.063H938.752M1041.48 539.646L1034.25 549.063M1041.48 539.646L1049.03 529.813M1041.48 539.646H1090.27M1034.25 549.063H1082M938.752 549.063H891.001M938.752 549.063L937.495 551.355L933.802 558.089M1082 549.063L1090.27 539.646M933.802 558.089H887.042M1049.03 529.813L1056.92 519.534M1049.03 529.813H1098.89M1090.27 539.646L1098.89 529.813M1098.89 529.813L1107.91 519.534M1005.93 519.534L1013.01 508.781M1005.93 519.534H1056.92M1005.93 519.534H954.945M1056.92 519.534L1065.18 508.781M1056.92 519.534H1107.91M1107.91 519.534L1117.35 508.781M1013.01 508.781H1065.18M1013.01 508.781H960.843M1073.83 497.518L1065.18 508.781M1073.83 497.518L1082.89 485.709M1073.83 497.518H1127.23M1065.18 508.781H1117.35M960.843 508.781H908.674M960.843 508.781L954.945 519.534M1117.35 508.781L1127.23 497.518M954.945 519.534H903.957M1082.89 485.709L1092.41 473.313M1082.89 485.709H1137.59M1127.23 497.518L1137.59 485.709M1137.59 485.709L1148.47 473.313M1036.35 473.313L1044.93 460.285M1036.35 473.313H1092.41M1036.35 473.313H980.294M1092.41 473.313L1102.41 460.285M1092.41 473.313H1148.47M1148.47 473.313L1159.9 460.285M1044.93 460.285H1102.41M1044.93 460.285H987.439M1112.94 446.575L1102.41 460.285M1112.94 446.575L1124.03 432.13M1112.94 446.575H1171.93M1102.41 460.285H1159.9M987.439 460.285H929.951M987.439 460.285L980.294 473.313M1159.9 460.285L1171.93 446.575M980.294 473.313H924.235M1124.03 432.13L1135.74 416.885M1124.03 432.13H1184.61M1171.93 446.575L1184.61 432.13M1184.61 432.13L1197.98 416.885M1073.49 416.885L1084.09 400.777M1073.49 416.885H1135.74M1073.49 416.885H1011.24M1135.74 416.885L1148.1 400.777M1135.74 416.885H1197.98M1197.98 416.885L1212.12 400.777M1084.09 400.777H1148.1M1084.09 400.777H1020.07M1161.19 383.726L1148.1 400.777M1161.19 383.726L1175.07 365.65M1161.19 383.726H1227.08M1148.1 400.777H1212.12M1020.07 400.777H956.059M1020.07 400.777L1011.24 416.885M1212.12 400.777L1227.08 383.726M1011.24 416.885H948.992M1175.07 365.65L1189.81 346.451M1175.07 365.65H1242.94M1227.08 383.726L1242.94 365.65M1242.94 365.65L1259.79 346.451M1119.84 346.451L1133.28 326.024M1119.84 346.451H1189.81M1119.84 346.451H1049.87M1189.81 346.451L1205.5 326.024M1189.81 346.451H1259.79M1259.79 346.451L1277.71 326.024M1133.28 326.024H1205.5M1133.28 326.024H1061.07M1222.22 304.246L1205.5 326.024M1222.22 304.246L1240.08 280.977M1222.22 304.246H1296.82M1205.5 326.024H1277.71M1061.07 326.024H988.854M1061.07 326.024L1049.87 346.451M1277.71 326.024L1296.82 304.246M1049.87 346.451H979.893M1240.08 280.977L1259.21 256.06M1240.08 280.977H1317.24M1296.82 304.246L1317.24 280.977M1317.24 280.977L1339.1 256.06M1179.33 256.06L1196.93 229.312M1179.33 256.06H1259.21M1179.33 256.06H1099.44M1259.21 256.06L1279.75 229.312M1259.21 256.06H1339.1M1339.1 256.06L1362.57 229.312M1196.93 229.312H1279.75M1196.93 229.312H1114.11M1301.85 200.525L1279.75 229.312M1301.85 200.525L1325.7 169.456M1301.85 200.525H1387.83M1279.75 229.312H1362.57M1114.11 229.312H1031.28M1114.11 229.312L1099.44 256.06M1362.57 229.312L1387.83 200.525M1362.57 229.312H1445.39M1099.44 256.06H1019.55M1325.7 169.456L1351.53 135.822M1325.7 169.456H1415.09M1387.83 200.525L1415.09 169.456M1445.39 229.312H1499.57M1415.09 169.456L1444.6 135.822M1415.09 169.456H1499.57M1258.45 135.822L1282.49 99.2936M1258.45 135.822H1351.53M1258.45 135.822H1165.38M1351.53 135.822L1379.57 99.2936M1351.53 135.822H1444.6M1444.6 135.822L1476.66 99.2936M1444.6 135.822H1499.57M1282.49 99.2936H1379.57M1282.49 99.2936H1185.41M1410.14 59.4787L1379.57 99.2936M1410.14 59.4787L1443.59 15.9131M1410.14 59.4787H1499.57M1379.57 99.2936H1476.66M1185.41 99.2936H1088.33M1185.41 99.2936L1165.38 135.822M1476.66 99.2936H1499.57M1476.66 99.2936L1499.57 73.1788M1165.38 135.822H1072.3M1443.59 15.9131L1480.35 -31.9601M1443.59 15.9131H1499.57M1368.87 -31.9601L1403.65 -84.8123M1368.87 -31.9601H1480.35M1368.87 -31.9601H1257.39M1480.35 -31.9601L1499.57 -56.9981M1480.35 -31.9601H1499.57M1403.65 -84.8123H1286.37M1403.65 -84.8123L1499.57 -84.8113M1286.37 -84.8123H1169.1M1286.37 -84.8123L1257.39 -31.9601M1257.39 -31.9601H1145.91M780.215 618.743L780.394 617.928L780.573 617.111L780.754 616.288L780.935 615.462L781.484 612.963L781.668 612.122M780.215 618.743H820.323M780.215 618.743H740.108M818.221 625.133L816.691 629.78L816.191 631.303M818.221 625.133L819.526 621.166L820.323 618.743M818.221 625.133H857.628M816.191 631.303H854.921M816.191 631.303L814.713 635.793L814.228 637.264M776.152 637.264L775.992 637.996L775.358 640.89L774.888 643.028M776.152 637.264H814.228M776.152 637.264H738.076M820.323 618.743L820.591 617.928L820.861 617.111L821.131 616.288L821.403 615.462L822.502 612.122M820.323 618.743H860.431M857.628 625.133L855.589 629.78L854.921 631.303M857.628 625.133L860.431 618.743M854.921 631.303L853.601 634.309L852.627 636.53L852.305 637.264M814.228 637.264L813.989 637.996L813.511 639.448L813.036 640.89L812.801 641.606L812.332 643.028M814.228 637.264H852.305M860.431 618.743L862.6 613.8L863.335 612.122M890.382 637.264L888.001 641.606L887.221 643.028M890.382 637.264H852.305M852.305 637.264L850.088 642.318L849.776 643.028M781.668 612.122H822.502M781.668 612.122H740.834M824.76 605.257L822.502 612.122M824.76 605.257L827.104 598.134M824.76 605.257H866.347M822.502 612.122H863.335M740.834 612.122H700M740.834 612.122L740.108 618.743M863.335 612.122L866.347 605.257M740.108 618.743H700M827.104 598.134L827.705 596.312L828.615 593.545L829.538 590.739M827.104 598.134H869.473M866.347 605.257L866.732 604.382L869.473 598.134M869.473 598.134L869.871 597.225L870.272 596.312L870.675 595.393L872.717 590.739M786.358 590.739L788.044 583.054M786.358 590.739H829.538M786.358 590.739H743.179M829.538 590.739L832.066 583.054M829.538 590.739H872.717M872.717 590.739L875.233 585.004L875.66 584.031L876.089 583.054M788.044 583.054H832.066M788.044 583.054H744.022M834.696 575.064L835.031 574.042L835.37 573.017L835.709 571.985L837.432 566.749M834.696 575.064L833.368 579.099L833.04 580.095L832.714 581.087L832.066 583.054M834.696 575.064H879.594M832.066 583.054H876.089M744.022 583.054H700M744.022 583.054L743.179 590.739M876.089 583.054L879.594 575.064M743.179 590.739H700M837.432 566.749L839.919 559.191L840.281 558.089M837.432 566.749H883.242M879.594 575.064L880.493 573.017L883.242 566.749M883.242 566.749L884.649 563.543L887.042 558.089M793.52 558.089L794.501 553.624L794.748 552.492L795.501 549.063M793.52 558.089H840.281M793.52 558.089H746.761M840.281 558.089L843.251 549.063M840.281 558.089H887.042M887.042 558.089L891.001 549.063M795.501 549.063H843.251M795.501 549.063H747.75M846.349 539.646L843.251 549.063M846.349 539.646L849.585 529.813M846.349 539.646H895.133M843.251 549.063H891.001M747.75 549.063H700M747.75 549.063L747.499 551.355L747.004 555.868L746.761 558.089M891.001 549.063L895.133 539.646M746.761 558.089H700M849.585 529.813L852.107 522.147L852.968 519.534M849.585 529.813H899.448M895.133 539.646L899.448 529.813M899.448 529.813L901.676 524.731L903.957 519.534M801.978 519.534L804.337 508.781M801.978 519.534H852.968M801.978 519.534H750.989M852.968 519.534L856.506 508.781M852.968 519.534H903.957M903.957 519.534L908.674 508.781M804.337 508.781H856.506M804.337 508.781H752.169M860.212 497.518L859.268 500.383L856.506 508.781M860.212 497.518L864.097 485.709M860.212 497.518H913.616M856.506 508.781H908.674M752.169 508.781H700M752.169 508.781L750.989 519.534M908.674 508.781L913.616 497.518M750.989 519.534H700M864.097 485.709L868.176 473.313M864.097 485.709H918.796M913.616 497.518L918.796 485.709M918.796 485.709L924.235 473.313M812.118 473.313L814.976 460.285M812.118 473.313H868.176M812.118 473.313H756.059M868.176 473.313L872.463 460.285M868.176 473.313H924.235M924.235 473.313L929.951 460.285M814.976 460.285H872.463M814.976 460.285H757.487M876.975 446.575L872.463 460.285M876.975 446.575L881.728 432.13M876.975 446.575H935.965M872.463 460.285H929.951M757.487 460.285H700M757.487 460.285L756.233 471.72L756.059 473.313M929.951 460.285L935.965 446.575M756.059 473.313H700M881.728 432.13L886.744 416.885M881.728 432.13H942.304M935.965 446.575L940.687 435.812L942.304 432.13M942.304 432.13L948.992 416.885M824.495 416.885L828.029 400.777M824.495 416.885H886.744M824.495 416.885H762.248M886.744 416.885L892.044 400.777M886.744 416.885H948.992M948.992 416.885L956.059 400.777M828.029 400.777H892.044M828.029 400.777H764.015M897.654 383.726L892.044 400.777M897.654 383.726L903.602 365.65M897.654 383.726H963.539M892.044 400.777H956.059M764.015 400.777H700M764.015 400.777L762.248 416.885M956.059 400.777L963.539 383.726M762.248 416.885H700M903.602 365.65L909.919 346.451M903.602 365.65H971.47M963.539 383.726L971.47 365.65M971.47 365.65L979.893 346.451M839.946 346.451L844.427 326.024M839.946 346.451H909.919M839.946 346.451H769.973M909.919 346.451L916.641 326.024M909.919 346.451H979.893M979.893 346.451L988.854 326.024M844.427 326.024H916.641M844.427 326.024H772.214M923.807 304.246L916.641 326.024M923.807 304.246L931.464 280.977M923.807 304.246H998.409M916.641 326.024H988.854M772.214 326.024H700M772.214 326.024L769.973 346.451M988.854 326.024L998.409 304.246M769.973 346.451H700M931.464 280.977L939.663 256.06M931.464 280.977H1008.62M998.409 304.246L1008.62 280.977M1008.62 280.977L1019.55 256.06M859.775 256.06L865.642 229.312M859.775 256.06H939.663M859.775 256.06H779.888M939.663 256.06L948.464 229.312M939.663 256.06H1019.55M1019.55 256.06L1031.28 229.312M865.642 229.312H948.464M865.642 229.312H782.821M957.936 200.525L948.464 229.312M957.936 200.525L968.159 169.456M957.936 200.525H1043.91M948.464 229.312H1031.28M782.821 229.312H700M782.821 229.312L779.888 256.06M1031.28 229.312L1043.91 200.525M779.888 256.06H700M968.159 169.456L979.226 135.822M968.159 169.456H1057.55M1043.91 200.525L1057.55 169.456M1057.55 169.456L1072.3 135.822M886.151 135.822L894.164 99.2936M886.151 135.822H979.226M886.151 135.822H793.076M979.226 135.822L991.246 99.2936M979.226 135.822H1072.3M1072.3 135.822L1088.33 99.2936M894.164 99.2936H991.246M894.164 99.2936H797.082M1004.35 59.4787L991.246 99.2936M1004.35 59.4787L1018.68 15.9131M1004.35 59.4787H1105.8M991.246 99.2936H1088.33M797.082 99.2936H700M797.082 99.2936L793.076 135.822M1088.33 99.2936L1105.8 59.4787M793.076 135.822H700M1018.68 15.9131L1034.43 -31.9601M1018.68 15.9131H1124.91M1105.8 59.4787L1124.91 15.9131M1124.91 15.9131L1145.91 -31.9601M922.956 -31.9601L934.549 -84.8123M922.956 -31.9601H1034.43M922.956 -31.9601H811.478M1034.43 -31.9601L1051.82 -84.8123M1034.43 -31.9601H1145.91M1145.91 -31.9601L1169.1 -84.8123M1051.82 -84.8123H934.549M1051.82 -84.8123H1169.1M934.549 -84.8123H817.275M817.275 -84.8123H700M817.275 -84.8123L811.478 -31.9601M811.478 -31.9601H700M619.785 618.743L619.606 617.928L619.427 617.111L619.246 616.288L619.065 615.462L618.7 613.8L618.516 612.963L618.332 612.122M619.785 618.743H659.892M619.785 618.743H579.676M660.593 625.133L661.27 631.303M660.593 625.133L659.892 618.743M660.593 625.133H700M661.27 631.303L661.353 632.059L661.436 632.812L661.517 633.562L661.924 637.264M661.27 631.303H700M623.848 637.264L624.008 637.996L624.642 640.89L625.112 643.028M623.848 637.264H661.924M623.848 637.264H585.772M659.892 618.743L659.803 617.928L659.713 617.111L659.623 616.288L659.166 612.122M659.892 618.743H700M700 625.133V631.303M700 625.133V618.743M700 631.303V637.264M661.924 637.264H700M661.924 637.264L662.163 639.448L662.243 640.17L662.556 643.028M700 618.743V612.122M738.076 637.264L737.837 639.448L737.757 640.17L737.679 640.89L737.6 641.606L737.522 642.318L737.444 643.028M738.076 637.264H700M700 637.264V643.028M618.332 612.122H659.166M618.332 612.122H577.499M658.413 605.257L658.317 604.382L658.221 603.502L657.632 598.134M658.413 605.257L659.166 612.122M658.413 605.257H700M659.166 612.122H700M577.499 612.122H536.665M577.499 612.122L578.05 613.8L578.325 614.633L578.597 615.462L578.869 616.288L579.139 617.111L579.409 617.928L579.676 618.743M700 612.122V605.257M579.676 618.743H539.569M657.632 598.134L656.821 590.739M657.632 598.134H700M700 605.257V598.134M700 598.134V590.739M613.642 590.739L611.956 583.054M613.642 590.739H656.821M613.642 590.739H570.462M656.821 590.739L655.978 583.054M656.821 590.739H700M700 590.739V583.054M611.956 583.054H655.978M611.956 583.054H567.934M655.102 575.064L655.978 583.054M655.102 575.064L654.19 566.749M655.102 575.064H700M655.978 583.054H700M567.934 583.054H523.912M567.934 583.054L570.462 590.739M700 583.054V575.064M570.462 590.739H527.283M654.19 566.749L653.838 563.543L653.481 560.288L653.239 558.089M654.19 566.749H700M700 575.064V566.749M700 566.749V558.089M606.48 558.089L605.499 553.624L605.252 552.492L604.499 549.063M606.48 558.089H653.239M606.48 558.089H559.719M653.239 558.089L652.996 555.868L652.501 551.355L652.25 549.063M653.239 558.089H700M700 558.089V549.063M604.499 549.063H652.25M604.499 549.063H556.749M651.217 539.646L651.348 540.845L652.25 549.063M651.217 539.646L650.139 529.813M651.217 539.646H700M652.25 549.063H700M556.749 549.063H508.999M556.749 549.063L559.719 558.089M700 549.063V539.646M559.719 558.089H512.958M650.139 529.813L649.011 519.534M650.139 529.813H700M700 539.646V529.813M700 529.813V519.534M598.022 519.534L595.663 508.781M598.022 519.534H649.011M598.022 519.534H547.032M649.011 519.534L647.831 508.781M649.011 519.534H700M700 519.534V508.781M595.663 508.781H647.831M595.663 508.781H543.494M646.596 497.518L647.831 508.781M646.596 497.518L645.301 485.709M646.596 497.518H700M647.831 508.781H700M543.494 508.781H491.326M543.494 508.781L547.032 519.534M700 508.781V497.518M547.032 519.534H496.043M645.301 485.709L643.941 473.313M645.301 485.709H700M700 497.518V485.709M700 485.709V473.313M587.882 473.313L585.024 460.285M587.882 473.313H643.941M587.882 473.313H531.824M643.941 473.313L642.513 460.285M643.941 473.313H700M700 473.313V460.285M585.024 460.285H642.513M585.024 460.285H527.537M641.008 446.575L642.513 460.285M641.008 446.575L639.424 432.13M641.008 446.575H700M642.513 460.285H700M527.537 460.285H470.049M527.537 460.285L531.824 473.313M700 460.285V446.575M531.824 473.313H475.765M639.424 432.13L637.752 416.885M639.424 432.13H700M700 446.575V432.13M700 432.13V416.885M575.505 416.885L571.971 400.777M575.505 416.885H637.752M575.505 416.885H513.256M637.752 416.885L635.985 400.777M637.752 416.885H700M700 416.885V400.777M571.971 400.777H635.985M571.971 400.777H507.956M634.116 383.726L635.985 400.777M634.116 383.726L632.132 365.65M634.116 383.726H700M635.985 400.777H700M507.956 400.777H443.941M507.956 400.777L513.256 416.885M700 400.777V383.726M513.256 416.885H451.008M632.132 365.65L630.027 346.451M632.132 365.65H700M700 383.726V365.65M700 365.65V346.451M560.054 346.451L555.573 326.024M560.054 346.451H630.027M560.054 346.451H490.081M630.027 346.451L627.786 326.024M630.027 346.451H700M700 346.451V326.024M555.573 326.024H627.786M555.573 326.024H483.359M625.398 304.246L627.786 326.024M625.398 304.246L622.846 280.977M625.398 304.246H700M627.786 326.024H700M483.359 326.024H411.146M483.359 326.024L490.081 346.451M700 326.024V304.246M490.081 346.451H420.107M622.846 280.977L620.112 256.06M622.846 280.977H700M700 304.246V280.977M700 280.977V256.06M540.225 256.06L534.358 229.312M540.225 256.06H620.112M540.225 256.06H460.337M620.112 256.06L617.179 229.312M620.112 256.06H700M700 256.06V229.312M534.358 229.312H617.179M534.358 229.312H451.536M614.021 200.525L617.179 229.312M614.021 200.525L610.614 169.456M614.021 200.525H700M617.179 229.312H700M451.536 229.312H368.715M451.536 229.312L460.337 256.06M700 229.312V200.525M460.337 256.06H380.45M610.614 169.456L606.924 135.822M610.614 169.456H700M700 200.525V169.456M700 169.456V135.822M513.849 135.822L505.836 99.2936M513.849 135.822H606.924M513.849 135.822H420.774M606.924 135.822L602.918 99.2936M606.924 135.822H700M700 135.822V99.2936M505.836 99.2936H602.918M505.836 99.2936H408.754M598.551 59.4787L602.918 99.2936M598.551 59.4787L593.773 15.9131M598.551 59.4787H700M602.918 99.2936H700M408.754 99.2936H311.672M408.754 99.2936L420.774 135.822M700 99.2936V59.4787M420.774 135.822H327.699M593.773 15.9131L588.522 -31.9601M593.773 15.9131H700M700 59.4787V15.9131M700 15.9131V-31.9601M477.044 -31.9601L465.45 -84.8123M477.044 -31.9601H588.522M477.044 -31.9601H365.566M588.522 -31.9601L582.725 -84.8123M588.522 -31.9601H700M700 -31.9601V-84.8123M582.725 -84.8123H465.45M582.725 -84.8123H700M465.45 -84.8123H348.175M348.175 -84.8123H230.9M348.175 -84.8123L365.566 -31.9601M365.566 -31.9601H254.088M459.354 618.743L457.195 615.462L454.997 612.122M459.354 618.743H499.461M459.354 618.743H419.246M502.965 625.133L506.349 631.303M502.965 625.133L499.461 618.743M502.965 625.133H542.372M506.349 631.303H545.079M506.349 631.303L508.811 635.793L509.618 637.264M471.542 637.264H509.618M471.542 637.264L472.98 639.448L475.335 643.028M471.542 637.264H433.466M499.461 618.743L495.831 612.122M499.461 618.743H539.569M542.372 625.133L545.079 631.303M542.372 625.133L539.569 618.743M545.079 631.303L546.399 634.309L547.373 636.53L547.695 637.264M509.618 637.264H547.695M509.618 637.264L511.999 641.606L512.779 643.028M539.569 618.743L537.4 613.8L536.665 612.122M585.772 637.264L586.011 637.996L586.489 639.448L587.199 641.606L587.668 643.028M585.772 637.264H547.695M547.695 637.264L548.015 637.996L548.653 639.448L550.223 643.028M454.997 612.122H495.831M454.997 612.122H414.162M492.065 605.257L492.544 606.129L493.02 606.998L494.902 610.43L495.831 612.122M492.065 605.257L489.149 599.941L488.159 598.134M492.065 605.257H533.653M495.831 612.122H536.665M414.162 612.122H373.328M414.162 612.122L417.992 617.111L419.246 618.743M536.665 612.122L533.653 605.257M419.246 618.743H379.138M488.159 598.134L487.661 597.225L487.16 596.312L485.643 593.545L485.132 592.614L484.104 590.739M488.159 598.134H530.527M533.653 605.257L533.268 604.382L530.527 598.134M530.527 598.134L530.129 597.225L529.728 596.312L529.325 595.393L527.283 590.739M440.925 590.739L435.867 583.054M440.925 590.739H484.104M440.925 590.739H397.745M484.104 590.739L479.889 583.054M484.104 590.739H527.283M527.283 590.739L523.912 583.054M435.867 583.054H479.889M435.867 583.054H391.845M475.508 575.064L479.889 583.054M475.508 575.064L470.948 566.749M475.508 575.064H520.406M479.889 583.054H523.912M391.845 583.054H347.823M391.845 583.054L397.745 590.739M523.912 583.054L520.406 575.064M397.745 590.739H354.565M470.948 566.749L466.198 558.089M470.948 566.749H516.758M520.406 575.064L519.507 573.017L516.758 566.749M516.758 566.749L515.351 563.543L513.923 560.288L512.958 558.089M419.438 558.089L416.499 553.624L413.498 549.063M419.438 558.089H466.198M419.438 558.089H372.677M466.198 558.089L461.248 549.063M466.198 558.089H512.958M512.958 558.089L508.999 549.063M413.498 549.063H461.248M413.498 549.063H365.748M456.084 539.646L461.248 549.063M456.084 539.646L450.691 529.813M456.084 539.646H504.867M461.248 549.063H508.999M365.748 549.063H317.997M365.748 549.063L372.677 558.089M508.999 549.063L504.867 539.646M372.677 558.089H325.917M450.691 529.813L449.305 527.286L445.055 519.534M450.691 529.813H500.552M504.867 539.646L500.552 529.813M500.552 529.813L500 528.553L498.324 524.731L496.043 519.534M394.066 519.534L386.989 508.781M394.066 519.534H445.055M394.066 519.534H343.076M445.055 519.534L439.157 508.781M445.055 519.534H496.043M496.043 519.534L491.326 508.781M386.989 508.781H439.157M386.989 508.781H334.82M432.98 497.518L436.875 504.619L439.157 508.781M432.98 497.518L426.504 485.709M432.98 497.518H486.384M439.157 508.781H491.326M334.82 508.781H282.651M334.82 508.781L343.076 519.534M491.326 508.781L486.384 497.518M343.076 519.534H292.087M426.504 485.709L419.706 473.313M426.504 485.709H481.204M486.384 497.518L481.204 485.709M481.204 485.709L475.765 473.313M363.647 473.313L355.073 460.285M363.647 473.313H419.706M363.647 473.313H307.589M419.706 473.313L412.561 460.285M419.706 473.313H475.765M475.765 473.313L470.049 460.285M355.073 460.285H412.561M355.073 460.285H297.586M405.043 446.575L412.561 460.285M405.043 446.575L397.121 432.13M405.043 446.575H464.035M412.561 460.285H470.049M297.586 460.285H240.099M297.586 460.285L307.589 473.313M470.049 460.285L464.035 446.575M307.589 473.313H251.53M397.121 432.13L388.761 416.885M397.121 432.13H457.696M464.035 446.575L457.696 432.13M457.696 432.13L451.008 416.885M326.513 416.885L315.912 400.777M326.513 416.885H388.761M326.513 416.885H264.265M388.761 416.885L379.927 400.777M388.761 416.885H451.008M451.008 416.885L443.941 400.777M315.912 400.777H379.927M315.912 400.777H251.897M370.576 383.726L379.927 400.777M370.576 383.726L360.663 365.65M370.576 383.726H436.461M379.927 400.777H443.941M251.897 400.777H187.882M251.897 400.777L264.265 416.885M443.941 400.777L436.461 383.726M264.265 416.885H202.017M360.663 365.65L350.134 346.451M360.663 365.65H428.53M436.461 383.726L428.53 365.65M428.53 365.65L420.107 346.451M280.161 346.451L266.718 326.024M280.161 346.451H350.134M280.161 346.451H210.188M350.134 346.451L338.932 326.024M350.134 346.451H420.107M420.107 346.451L411.146 326.024M266.718 326.024H338.932M266.718 326.024H194.505M326.988 304.246L338.932 326.024M326.988 304.246L314.227 280.977M326.988 304.246H401.591M338.932 326.024H411.146M194.505 326.024H122.291M194.505 326.024L210.188 346.451M411.146 326.024L401.591 304.246M210.188 346.451H140.215M314.227 280.977L300.563 256.06M314.227 280.977H391.382M401.591 304.246L391.382 280.977M391.382 280.977L380.45 256.06M220.675 256.06L203.073 229.312M220.675 256.06H300.563M220.675 256.06H140.787M300.563 256.06L285.894 229.312M300.563 256.06H380.45M380.45 256.06L368.715 229.312M203.073 229.312H285.894M203.073 229.312H120.251M270.106 200.525L285.894 229.312M270.106 200.525L253.068 169.456M270.106 200.525H356.085M285.894 229.312H368.715M120.251 229.312H37.4302M120.251 229.312L140.787 256.06M368.715 229.312L356.085 200.525M140.787 256.06H60.8992M253.068 169.456L234.623 135.822M253.068 169.456H342.454M356.085 200.525L342.454 169.456M342.454 169.456L327.699 135.822M141.548 135.822L117.509 99.2936M141.548 135.822H234.623M141.548 135.822H48.4726M234.623 135.822L214.591 99.2936M234.623 135.822H327.699M327.699 135.822L311.672 99.2936M117.509 99.2936H214.591M117.509 99.2936H20.4268M192.756 59.4787L214.591 99.2936M192.756 59.4787L168.864 15.9131M192.756 59.4787H294.204M214.591 99.2936H311.672M20.4268 99.2936H-76.6551M20.4268 99.2936L48.4726 135.822M311.672 99.2936L294.204 59.4787M48.4726 135.822H-44.6023M168.864 15.9131L142.61 -31.9601M168.864 15.9131H275.091M294.204 59.4787L275.091 15.9131M275.091 15.9131L254.088 -31.9601M31.1319 -31.9601L-3.64938 -84.8123M31.1319 -31.9601H142.61M31.1319 -31.9601H-80.3464M142.61 -31.9601L113.626 -84.8123M142.61 -31.9601H254.088M254.088 -31.9601L230.9 -84.8123M113.626 -84.8123H-3.64938M113.626 -84.8123H230.9M-3.64938 -84.8123L-99.5694 -84.8113M-80.3464 -31.9601L-99.5694 -56.9981M-80.3464 -31.9601H-99.5694M298.923 618.743L291.661 612.122M298.923 618.743H339.03M298.923 618.743H258.815M345.338 625.133L351.429 631.303M345.338 625.133L339.03 618.743M345.338 625.133H384.745M351.429 631.303H390.159M351.429 631.303L357.314 637.264M319.237 637.264H357.314M319.237 637.264L321.633 639.448L325.559 643.028M319.237 637.264H281.161M339.03 618.743L332.495 612.122M339.03 618.743H379.138M384.745 625.133L390.159 631.303M384.745 625.133L379.138 618.743M390.159 631.303L394.099 635.793L395.39 637.264M357.314 637.264L358.035 637.996L363.003 643.028M357.314 637.264H395.39M379.138 618.743L373.328 612.122M433.466 637.264L437.891 643.028M433.466 637.264H395.39M395.39 637.264L397.306 639.448L400.447 643.028M291.661 612.122H332.495M291.661 612.122H250.827M325.718 605.257L332.495 612.122M325.718 605.257L318.687 598.134M325.718 605.257H367.305M332.495 612.122H373.328M250.827 612.122H209.993M250.827 612.122L258.815 618.743M373.328 612.122L367.305 605.257M258.815 618.743H218.708M318.687 598.134L316.887 596.312L311.386 590.739M318.687 598.134H361.055M367.305 605.257L361.055 598.134M361.055 598.134L354.565 590.739M268.207 590.739L267.171 589.794L259.779 583.054M268.207 590.739H311.386M268.207 590.739H225.027M311.386 590.739L303.801 583.054M311.386 590.739H354.565M354.565 590.739L353.737 589.794L347.823 583.054M259.779 583.054H303.801M259.779 583.054H215.757M295.913 575.064L303.801 583.054M295.913 575.064L287.705 566.749M295.913 575.064H340.812M303.801 583.054H347.823M215.757 583.054H171.734M215.757 583.054L225.027 590.739M347.823 583.054L340.812 575.064M225.027 590.739H181.848M287.705 566.749L279.157 558.089M287.705 566.749H333.516M340.812 575.064L333.516 566.749M333.516 566.749L325.917 558.089M232.397 558.089L222.496 549.063M232.397 558.089H279.157M232.397 558.089H185.636M279.157 558.089L270.246 549.063M279.157 558.089H325.917M325.917 558.089L317.997 549.063M222.496 549.063H270.246M222.496 549.063H174.745M260.951 539.646L270.246 549.063M260.951 539.646L251.243 529.813M260.951 539.646H309.733M270.246 549.063H317.997M174.745 549.063H126.995M174.745 549.063L185.636 558.089M317.997 549.063L309.733 539.646M185.636 558.089H138.876M251.243 529.813L241.098 519.534M251.243 529.813H301.106M309.733 539.646L301.106 529.813M301.106 529.813L292.087 519.534M190.109 519.534L178.314 508.781M190.109 519.534H241.098M190.109 519.534H139.12M241.098 519.534L230.483 508.781M241.098 519.534H292.087M292.087 519.534L282.651 508.781M178.314 508.781H230.483M178.314 508.781H126.146M219.365 497.518L230.483 508.781M219.365 497.518L207.708 485.709M219.365 497.518H272.768M230.483 508.781H282.651M126.146 508.781H73.9771M126.146 508.781L139.12 519.534M282.651 508.781L272.768 497.518M139.12 519.534H88.1303M207.708 485.709L195.471 473.313M207.708 485.709H262.407M272.768 497.518L262.407 485.709M262.407 485.709L251.53 473.313M139.412 473.313L125.123 460.285M139.412 473.313H195.471M139.412 473.313H83.3538M195.471 473.313L182.61 460.285M195.471 473.313H251.53M251.53 473.313L240.099 460.285M125.123 460.285H182.61M125.123 460.285H67.6347M169.077 446.575L182.61 460.285M169.077 446.575L154.817 432.13M169.077 446.575H228.068M182.61 460.285H240.099M67.6347 460.285H10.1474M67.6347 460.285L83.3538 473.313M240.099 460.285L228.068 446.575M83.3538 473.313H27.2948M154.817 432.13L139.769 416.885M154.817 432.13H215.393M228.068 446.575L215.393 432.13M215.393 432.13L202.017 416.885M77.5211 416.885L59.8531 400.777M77.5211 416.885H139.769M77.5211 416.885H15.2738M139.769 416.885L123.868 400.777M139.769 416.885H202.017M202.017 416.885L187.882 400.777M59.8531 400.777H123.868M59.8531 400.777H-4.16161M107.037 383.726L123.868 400.777M107.037 383.726L89.1931 365.65M107.037 383.726H172.921M123.868 400.777H187.882M-4.16161 400.777H-68.1763M-4.16161 400.777L15.2738 416.885M187.882 400.777L172.921 383.726M15.2738 416.885H-46.9744M89.1931 365.65L70.2416 346.451M89.1931 365.65H157.061M172.921 383.726L157.061 365.65M157.061 365.65L140.215 346.451M0.268508 346.451L-22.1361 326.024M0.268508 346.451H70.2416M0.268508 346.451H-69.7046M70.2416 346.451L50.0775 326.024M70.2416 346.451H140.215M140.215 346.451L122.291 326.024M-22.1361 326.024H50.0775M-22.1361 326.024H-94.3497M28.5783 304.246L50.0775 326.024M28.5783 304.246L5.60897 280.977M28.5783 304.246H103.181M50.0775 326.024H122.291M-94.3497 326.024L-69.7046 346.451M-94.3497 326.024H-99.5694M-94.3497 326.024L-99.5694 321.698M122.291 326.024L103.181 304.246M-69.7046 346.451H-99.5694M5.60897 280.977L-18.9878 256.06M5.60897 280.977H82.7633M103.181 304.246L82.7633 280.977M82.7633 280.977L60.8992 256.06M-98.8756 256.06H-18.9878M-98.8756 256.06H-99.5694M-98.8756 256.06L-99.5694 255.427M-18.9878 256.06L-45.3919 229.312M-18.9878 256.06H60.8992M60.8992 256.06L37.4302 229.312M-73.8083 200.525L-45.3919 229.312M-73.8083 200.525H12.1704M-73.8083 200.525H-99.5694M-73.8083 200.525L-99.5694 174.428M-45.3919 229.312H37.4302M-45.3919 229.312H-99.5694M37.4302 229.312L12.1704 200.525M12.1704 200.525L-15.0907 169.456M-15.0907 169.456L-44.6023 135.822M-15.0907 169.456H-99.5694M-44.6023 135.822L-76.6551 99.2936M-44.6023 135.822H-99.5694M-76.6551 99.2936H-99.5694M-76.6551 99.2936L-99.5694 73.1788M138.492 618.743L128.325 612.122M138.492 618.743H178.6M138.492 618.743H98.384M187.71 625.133L196.508 631.303M187.71 625.133L178.6 618.743M187.71 625.133H227.117M196.508 631.303H235.238M196.508 631.303L205.008 637.264M166.932 637.264H205.008M166.932 637.264L175.782 643.028M166.932 637.264H128.856M178.6 618.743L169.159 612.122M178.6 618.743H218.708M227.117 625.133L235.238 631.303M227.117 625.133L218.708 618.743M235.238 631.303L243.084 637.264M205.008 637.264L206.05 637.996L213.226 643.028M205.008 637.264H243.084M218.708 618.743L209.993 612.122M281.161 637.264L288.114 643.028M281.161 637.264H243.084M243.084 637.264L244.046 637.996L250.67 643.028M128.325 612.122H169.159M128.325 612.122H87.4915M159.37 605.257L169.159 612.122M159.37 605.257L149.214 598.134M159.37 605.257H200.958M169.159 612.122H209.993M87.4915 612.122H46.6577M87.4915 612.122L98.384 618.743M209.993 612.122L200.958 605.257M98.384 618.743H58.2764M149.214 598.134L138.669 590.739M149.214 598.134H191.582M200.958 605.257L199.804 604.382L191.582 598.134M191.582 598.134L181.848 590.739M95.4897 590.739L83.6902 583.054M95.4897 590.739H138.669M95.4897 590.739H52.3105M138.669 590.739L127.712 583.054M138.669 590.739H181.848M181.848 590.739L171.734 583.054M83.6902 583.054H127.712M83.6902 583.054H39.6681M116.319 575.064L127.712 583.054M116.319 575.064L104.463 566.749M116.319 575.064H161.218M127.712 583.054H171.734M39.6681 583.054H-4.354M39.6681 583.054L52.3105 590.739M171.734 583.054L161.218 575.064M52.3105 590.739H9.13124M104.463 566.749L92.1157 558.089M104.463 566.749H150.274M161.218 575.064L150.274 566.749M150.274 566.749L138.876 558.089M45.3551 558.089L31.4942 549.063M45.3551 558.089H92.1157M45.3551 558.089H-1.40559M92.1157 558.089L79.2451 549.063M92.1157 558.089H138.876M138.876 558.089L126.995 549.063M31.4942 549.063H79.2451M31.4942 549.063H-16.2559M65.8174 539.646L79.2451 549.063M65.8174 539.646L51.7966 529.813M65.8174 539.646H114.601M79.2451 549.063H126.995M-16.2559 549.063H-64.006M-16.2559 549.063L-1.40559 558.089M126.995 549.063L114.601 539.646M-1.40559 558.089H-48.1654M51.7966 529.813L37.1412 519.534M51.7966 529.813H101.658M114.601 539.646L101.658 529.813M101.658 529.813L88.1303 519.534M-13.8481 519.534L-30.36 508.781M-13.8481 519.534H37.1412M-13.8481 519.534H-64.8364M37.1412 519.534L21.8086 508.781M37.1412 519.534H88.1303M88.1303 519.534L73.9771 508.781M-30.36 508.781H21.8086M5.74889 497.518L21.8086 508.781M5.74889 497.518L-11.0887 485.709M5.74889 497.518H59.1535M21.8086 508.781H73.9771M73.9771 508.781L59.1535 497.518M-64.8364 519.534H-99.5694M-11.0887 485.709L-28.7642 473.313M-11.0887 485.709H43.6102M59.1535 497.518L43.6102 485.709M43.6102 485.709L27.2948 473.313M-84.8232 473.313H-28.7642M-84.8232 473.313H-99.5694M-84.8232 473.313L-99.5694 463.71M-28.7642 473.313L-47.3409 460.285M-28.7642 473.313H27.2948M27.2948 473.313L10.1474 460.285M-66.8887 446.575L-47.3409 460.285M-66.8887 446.575L-87.4867 432.13M-66.8887 446.575H-7.89709M-66.8887 446.575H-99.5694M-47.3409 460.285H10.1474M-47.3409 460.285H-99.5694M10.1474 460.285L-7.89709 446.575M-99.7318 463.604L-99.5694 463.71M-87.4867 432.13H-26.911M-87.4867 432.13H-99.5694M-87.4867 432.13L-99.5694 423.655M-7.89709 446.575L-26.911 432.13M-26.911 432.13L-46.9744 416.885M-46.9744 416.885L-68.1763 400.777M-46.9744 416.885H-99.5694M-90.6175 383.726L-68.1763 400.777M-90.6175 383.726H-99.5694M-90.6175 383.726L-99.5694 376.925M-68.1763 400.777H-99.5694M-21.9387 618.743L-35.01 612.122M-21.9387 618.743H18.1689M-21.9387 618.743H-62.0471M30.0825 625.133L41.5871 631.303M30.0825 625.133L18.1689 618.743M30.0825 625.133H69.4896M41.5871 631.303H80.3171M41.5871 631.303L52.7028 637.264M14.6266 637.264H52.7028M14.6266 637.264L26.0055 643.028M14.6266 637.264H-23.4496M18.1689 618.743L5.82385 612.122M18.1689 618.743H58.2764M69.4896 625.133L80.3171 631.303M69.4896 625.133L58.2764 618.743M80.3171 631.303L90.7789 637.264M52.7028 637.264H90.7789M52.7028 637.264L63.4503 643.028M58.2764 618.743L46.6577 612.122M128.856 637.264L138.338 643.028M128.856 637.264H90.7789M90.7789 637.264L100.894 643.028M-35.01 612.122H5.82385M-35.01 612.122H-75.8438M-6.97676 605.257L5.82385 612.122M-6.97676 605.257L-20.2579 598.134M-6.97676 605.257H34.61M5.82385 612.122H46.6577M-75.8438 612.122L-62.0471 618.743M-75.8438 612.122H-99.5694M46.6577 612.122L34.61 605.257M-62.0471 618.743H-99.5694M-20.2579 598.134L-34.048 590.739M-20.2579 598.134H22.1101M34.61 605.257L22.1101 598.134M22.1101 598.134L9.13124 590.739M-77.2273 590.739L-92.3983 583.054M-77.2273 590.739H-34.048M-77.2273 590.739H-99.5694M-34.048 590.739L-48.3761 583.054M-34.048 590.739H9.13124M9.13124 590.739L-4.354 583.054M-63.2748 575.064L-48.3761 583.054M-63.2748 575.064L-78.7789 566.749M-63.2748 575.064H-18.3765M-63.2748 575.064H-99.5694M-48.3761 583.054H-92.3983M-48.3761 583.054H-4.354M-92.3983 583.054L-99.5694 579.422M-92.3983 583.054H-99.5694M-4.354 583.054L-18.3765 575.064M-78.7789 566.749L-94.9261 558.089M-78.7789 566.749H-32.9686M-78.7789 566.749H-99.5694M-18.3765 575.064L-32.9686 566.749M-32.9686 566.749L-48.1654 558.089M-94.9261 558.089H-48.1654M-94.9261 558.089L-99.5694 555.599M-94.9261 558.089H-99.5694M-48.1654 558.089L-64.006 549.063M-80.5322 539.646L-64.006 549.063M-80.5322 539.646L-97.7887 529.813M-80.5322 539.646H-99.5694M-64.006 549.063H-99.5694M-99.8193 549.063H-99.5694M-97.7887 529.813H-99.5694M-97.7887 529.813L-99.5694 528.798M-100 528.553L-99.5694 528.798M-88.1381 625.133L-74.6037 631.303M-88.1381 625.133H-99.5694M-88.1381 625.133L-99.5694 619.922M-74.6037 631.303L-61.5257 637.264M-74.6037 631.303H-99.5694M-23.4496 637.264L-11.4385 643.028M-23.4496 637.264H-61.5257M-61.5257 637.264L-48.8825 643.028M-61.5257 637.264H-99.5694M1224.22 643.028H1261.66M1224.22 643.028H1186.77M1252.49 648.603L1254.75 647.226L1261.66 643.028M1252.49 648.603H1289.32M1261.66 643.028H1299.11M1289.32 648.603L1291.74 647.226L1292.95 646.535L1299.11 643.028M1299.11 643.028H1336.55M1336.55 643.028H1373.99M1186.77 643.028H1149.33M1373.99 643.028H1411.44M1411.44 643.028L1399.82 648.603M1411.44 643.028H1448.88M1399.82 648.603H1436.65M1074.44 643.028H1111.89M1074.44 643.028H1037M1105.16 648.603L1106.82 647.226L1107.66 646.535L1111.89 643.028M1105.16 648.603H1141.99M1111.89 643.028H1149.33M1141.99 648.603L1149.33 643.028M1037 643.028H999.553M924.665 643.028H962.109M924.665 643.028H887.221M957.828 648.603L958.356 647.917L958.885 647.226L959.417 646.535L962.109 643.028M957.828 648.603H994.66M962.109 643.028H999.553M994.66 648.603L999.553 643.028M887.221 643.028H849.776M774.888 643.028H812.332M774.888 643.028H737.444M810.498 648.603L812.332 643.028M810.498 648.603H847.331M812.332 643.028H849.776M847.331 648.603L847.632 647.917L847.934 647.226L848.239 646.535L849.776 643.028M737.444 643.028H700M625.112 643.028H662.556M625.112 643.028H587.668M663.167 648.603L662.556 643.028M663.167 648.603H700M662.556 643.028H700M700 648.603V643.028M587.668 643.028H550.223M475.335 643.028H512.779M475.335 643.028H437.891M515.837 648.603L515.082 647.226L513.553 644.44L512.779 643.028M515.837 648.603H552.669M512.779 643.028H550.223M552.669 648.603L552.368 647.917L552.066 647.226L551.762 646.535L550.223 643.028M437.891 643.028H400.447M325.559 643.028H363.003M325.559 643.028H288.114M368.507 648.603L367.148 647.226L366.464 646.535L363.003 643.028M368.507 648.603H405.34M363.003 643.028H400.447M405.34 648.603L404.737 647.917L400.447 643.028M288.114 643.028H250.67M175.782 643.028H213.226M175.782 643.028H138.338M221.176 648.603L219.213 647.226L218.225 646.535L213.226 643.028M221.176 648.603H258.009M213.226 643.028H250.67M258.009 648.603L257.104 647.917L250.67 643.028M138.338 643.028H100.894M26.0055 643.028H63.4503M26.0055 643.028H-11.4385M73.8456 648.603L63.4503 643.028M73.8456 648.603H110.678M63.4503 643.028H100.894M110.678 648.603L108.263 647.226L107.047 646.535L100.894 643.028M-11.4385 643.028H-48.8825M-73.4843 648.603L-86.3265 643.028M-73.4843 648.603H-36.6516M-73.4843 648.603H-99.5694M-86.3265 643.028H-48.8825M-86.3265 643.028L-99.5694 637.278M-86.3265 643.028H-99.5694M-36.6516 648.603L-39.6716 647.226L-48.8825 643.028M1436.65 648.603L1439.67 647.226L1448.88 643.028M1448.88 643.028H1486.33M1486.33 643.028L1499.57 637.278M1486.33 643.028H1499.57M1499.57 376.925V383.726M1499.57 376.925V365.65M1499.57 383.726V400.777M1499.57 365.65V362.281V346.451M1499.57 346.451V326.024M1499.57 508.781V519.534M1499.57 508.781V498.423M1499.57 648.603V643.028M1499.57 643.028V637.278M1499.57 637.278L1499.6 637.264H1499.57M1499.57 637.278V637.264M1499.57 637.264V631.303M1499.57 631.303V625.133M1499.57 625.133V619.922M1499.57 619.922V618.743M1499.57 618.743V612.122M1499.57 612.122V605.257M1499.57 605.257V600.738M1499.57 600.738V598.134M1499.57 598.134V590.739M1499.57 590.739V583.054M1499.57 583.054V579.422M1499.57 579.422V575.064M1499.57 575.064V566.749M1499.57 566.749V558.089M1499.57 558.089V555.599M1499.57 555.599V549.063M1499.57 549.063V539.646M1499.57 539.646V529.813M1499.57 529.813V528.798M1499.57 528.798V519.534M1499.57 497.518V485.709M1499.57 497.518V498.423M1499.57 485.709V473.313M1499.57 473.313V463.71M1499.57 463.71V460.285M1499.57 460.285V446.575M1499.57 446.575V432.13M1499.57 432.13V423.655M1499.57 423.655V416.885M1499.57 416.885V400.777M1499.57 326.024V321.698M1499.57 321.698V304.246M1499.57 304.246V280.977M1499.57 280.977V256.06M1499.57 256.06V255.427M1499.57 255.427V229.312M1499.57 229.312V200.525M1499.57 200.525V174.428M1499.57 174.428V169.456M1499.57 169.456V135.822M1499.57 135.822V99.2936M1499.57 99.2936V73.1788M1499.57 73.1788V59.4787M1499.57 59.4787V15.9131M1499.57 15.9131V-31.9601M1499.57 -31.9601V-56.9981M1499.57 -56.9981V-84.8113M1499.57 -84.8113V-85H-99.5694V-84.8113M-99.5694 497.518V485.709M-99.5694 497.518V498.423M-99.5694 498.423V508.781M-99.5694 508.781V519.534M-99.5694 519.534V528.798M-99.5694 528.798V529.813M-99.5694 529.813V539.646M-99.5694 539.646V549.063M-99.5694 549.063V555.599M-99.5694 555.599V558.089M-99.5694 558.089V566.749M-99.5694 566.749V575.064M-99.5694 575.064V579.422M-99.5694 579.422V583.054M-99.5694 583.054V590.739M-99.5694 590.739V598.134M-99.5694 598.134V600.738M-99.5694 600.738V605.257M-99.5694 605.257V612.122M-99.5694 612.122V618.743M-99.5694 618.743V619.922M-99.5694 619.922V625.133M-99.5694 625.133V631.303M-99.5694 631.303V637.264M-99.5694 637.264H-99.6019L-99.5694 637.278M-99.5694 637.264V637.278M-99.5694 637.278V643.028M-99.5694 643.028V648.603M-99.5694 -84.8113V-56.9981M-99.5694 -56.9981V-31.9601M-99.5694 -31.9601V15.9122M-99.5694 15.9122V59.4787M-99.5694 59.4787V73.1788M-99.5694 73.1788V99.2936M-99.5694 99.2936V135.822M-99.5694 135.822V169.456M-99.5694 169.456V174.428M-99.5694 174.428V200.525M-99.5694 200.525V229.312M-99.5694 229.312V255.427M-99.5694 255.427V256.06M-99.5694 256.06V280.977M-99.5694 280.977V304.246M-99.5694 304.246V321.698M-99.5694 321.698V326.024M-99.5694 326.024V346.451M-99.5694 346.451V365.65M-99.5694 365.65V376.925M-99.5694 376.925V383.726M-99.5694 383.726V400.777M-99.5694 400.777V416.885M-99.5694 416.885V423.655M-99.5694 423.655V432.13M-99.5694 432.13V446.575M-99.5694 446.575V460.285M-99.5694 460.285V463.71M-99.5694 463.71V473.313M-99.5694 473.313V485.709" stroke="url(#paint0_radial_0_1970)" stroke-opacity="0.6" stroke-width="1.8895" stroke-miterlimit="10" stroke-linecap="round" stroke-linejoin="round"/>
<rect width="1600" height="365" transform="matrix(1 0 0 -1 -18 365)" fill="url(#paint1_linear_0_1970)"/>
</g>
<defs>
<radialGradient id="paint0_radial_0_1970" cx="0" cy="0" r="1" gradientUnits="userSpaceOnUse" gradientTransform="translate(700 -57.7628) rotate(90) scale(808.763 1751.04)">
<stop offset="0.18" stop-color="#3D3D3D"/>
<stop offset="0.495" stop-color="#3D3D3D" stop-opacity="0.1"/>
<stop offset="0.925" stop-color="#3D3D3D" stop-opacity="0"/>
</radialGradient>
<linearGradient id="paint1_linear_0_1970" x1="0" y1="0" x2="0" y2="242" gradientUnits="userSpaceOnUse">
<stop stop-color="white" stop-opacity="0"/>
<stop offset="1" stop-color="white"/>
</linearGradient>
<clipPath id="clip0_0_1970">
<rect width="1440" height="611" fill="white"/>
</clipPath>
</defs>
</svg>
