<svg width="28" height="30" viewBox="0 0 28 30" fill="none" xmlns="http://www.w3.org/2000/svg">
<path fill-rule="evenodd" clip-rule="evenodd" d="M14.0172 0.75H13.9884C13.9597 0.75 13.9281 0.75 13.8964 0.755757C13.4306 0.807514 13.0827 1.20722 13.0913 1.67305V3.49325C13.0798 3.99361 13.4766 4.41054 13.9798 4.42206C14.483 4.43355 14.8971 4.03673 14.9086 3.53351V1.67305C14.9172 1.17271 14.5176 0.758635 14.0172 0.75ZM6.95778 6.06973C6.94627 6.06111 6.93765 6.05248 6.92901 6.04386L5.64078 4.76137C5.47114 4.58596 5.23534 4.48243 4.99091 4.48243C4.95928 4.48243 4.92766 4.48243 4.89603 4.48819C4.39567 4.53995 4.03623 4.98853 4.08801 5.48887C4.111 5.69879 4.20877 5.89433 4.35829 6.04386L5.64078 7.33209C5.98873 7.69441 6.56671 7.70878 6.92901 7.35796C7.29421 7.01003 7.30571 6.43493 6.95778 6.06973ZM23.6502 4.75849C23.4748 4.58021 23.2333 4.48243 22.9831 4.48819C22.7473 4.49394 22.5259 4.59458 22.3591 4.76137L21.0709 6.04386C20.7086 6.39179 20.6971 6.96977 21.045 7.33209C21.3929 7.69729 21.968 7.70878 22.3332 7.36084C22.3419 7.35222 22.3505 7.34071 22.3591 7.33209L23.6416 6.04386C23.9982 5.69304 24.0039 5.11793 23.6502 4.75849ZM3.13333 13.4943H1.26997C0.769635 13.4829 0.35268 13.8797 0.341184 14.3829C0.329688 14.8861 0.729374 15.3002 1.22973 15.3117H3.09019C3.59341 15.3232 4.01036 14.9264 4.02186 14.4231C4.03337 13.9228 3.63367 13.5058 3.13333 13.4943ZM26.7701 13.4943H24.9097C24.4093 13.4829 23.9924 13.8797 23.9809 14.3829C23.9694 14.8861 24.3662 15.3002 24.8695 15.3117H26.7299C27.2303 15.3232 27.6472 14.9264 27.6587 14.4231C27.6702 13.9228 27.2705 13.5058 26.7701 13.4943ZM6.9549 21.4768C6.77662 21.2928 6.53221 21.1921 6.27628 21.1979H6.26477C6.02899 21.2065 5.80469 21.3043 5.64078 21.4739L4.35829 22.7622C3.97874 23.09 3.93272 23.6622 4.26053 24.0447C4.58547 24.4242 5.16057 24.4702 5.54302 24.1424C5.57753 24.1137 5.61203 24.0792 5.64078 24.0447L6.92901 22.7622C7.29133 22.4142 7.30285 21.8391 6.9549 21.4768ZM23.7508 22.8714C23.7164 22.8312 23.6818 22.7967 23.6416 22.7622L22.3591 21.4739C22.1894 21.2985 21.9536 21.1979 21.7093 21.1979C21.206 21.195 20.7977 21.6005 20.7948 22.1037C20.7919 22.351 20.8926 22.5896 21.0709 22.7622L22.3591 24.0447C22.684 24.4271 23.2591 24.476 23.6416 24.1539C24.0269 23.829 24.0758 23.2568 23.7508 22.8714Z" fill="#6481F1"/>
<path fill-rule="evenodd" clip-rule="evenodd" d="M17.3307 28.1709C17.3202 28.7817 16.8141 29.2634 16.2033 29.2495H11.7984C11.2085 29.2669 10.7059 28.8166 10.664 28.2268C10.6187 27.6194 11.0759 27.0889 11.6832 27.0435C11.6867 27.0435 11.6867 27.04 11.6867 27.04C11.7251 27.04 11.76 27.04 11.7984 27.0435H16.2521C16.863 27.0575 17.3447 27.5601 17.3307 28.1709Z" fill="#6481F1"/>
<path fill-rule="evenodd" clip-rule="evenodd" d="M13.9999 6.21924C9.49111 6.21924 5.81616 9.89415 5.81616 14.403C5.81616 17.2181 7.28269 19.6652 9.4537 21.1346V24.3581C9.4537 24.8613 9.86203 25.2667 10.3624 25.2667H17.6375C18.1378 25.2667 18.5462 24.8613 18.5462 24.3581V21.1346C20.7172 19.6652 22.1837 17.2181 22.1837 14.403C22.1837 9.89415 18.5087 6.21924 13.9999 6.21924ZM13.997 11.677C12.4788 11.677 11.271 12.8905 11.271 14.4059C11.271 14.9091 10.8656 15.3174 10.3624 15.3174C9.85916 15.3174 9.45082 14.9091 9.45082 14.4059C9.45082 11.907 11.4953 9.85677 13.997 9.85677C14.5003 9.85677 14.9057 10.2622 14.9057 10.7654C14.9057 11.2687 14.5003 11.677 13.997 11.677Z" fill="#6481F1"/>
</svg>
