<svg width="30" height="30" viewBox="0 0 30 30" fill="none" xmlns="http://www.w3.org/2000/svg">
<path fill-rule="evenodd" clip-rule="evenodd" d="M3.67158 14.5143C3.67158 15.5661 4.52705 16.4221 5.57939 16.4221C6.63115 16.4221 7.48721 15.5667 7.48721 14.5143C7.48721 14.1487 7.3835 13.8071 7.2042 13.5165L10.7017 10.3471C11.0222 10.5909 11.4212 10.7362 11.8542 10.7362C12.4202 10.7362 12.9294 10.4877 13.2792 10.0952L16.3413 11.9356C16.264 12.1424 16.2218 12.3663 16.2218 12.6C16.2218 13.6518 17.0772 14.5079 18.1296 14.5079C19.1813 14.5079 20.0374 13.6524 20.0374 12.6C20.0374 12.2221 19.9267 11.87 19.7368 11.5735L23.2794 8.24712C23.5952 8.47856 23.9843 8.61567 24.405 8.61567C25.4567 8.61567 26.3128 7.76021 26.3128 6.70786C26.3128 5.6561 25.4567 4.80005 24.405 4.80005C23.3532 4.80005 22.4972 5.65552 22.4972 6.70786C22.4972 7.08579 22.6079 7.43794 22.7978 7.73442L19.2552 11.0608C18.9394 10.8293 18.5503 10.6922 18.1296 10.6922C17.5636 10.6922 17.0544 10.9407 16.7046 11.3333L13.6425 9.49282C13.7198 9.28599 13.762 9.06216 13.762 8.82837C13.762 7.77661 12.906 6.92056 11.8542 6.92056C10.8024 6.92056 9.94639 7.77603 9.94639 8.82837C9.94639 9.19399 10.0501 9.53618 10.2294 9.82622L6.73193 12.995C6.41143 12.7512 6.01182 12.6059 5.57939 12.6059C4.52764 12.6065 3.67158 13.4626 3.67158 14.5143ZM7.53994 18.5584C7.73389 18.5584 7.8915 18.7161 7.8915 18.91V24.9768H9.5415V14.536C9.5415 14.342 9.69912 14.1844 9.89307 14.1844H13.8147C14.0093 14.1844 14.1663 14.342 14.1663 14.536V24.9768H15.8163V17.3022C15.8163 17.1083 15.9739 16.9506 16.1679 16.9506H20.0896C20.2835 16.9506 20.4411 17.1083 20.4411 17.3022V24.9768H22.0911V12.3276C22.0911 12.1331 22.2487 11.976 22.4427 11.976H26.3644C26.5583 11.976 26.7159 12.1336 26.7159 12.3276V24.9762H28.7603C28.9548 24.9762 29.1118 25.1338 29.1118 25.3278C29.1118 25.5217 28.9548 25.6793 28.7603 25.6793H1.22119C1.02725 25.6793 0.869629 25.5217 0.869629 25.3278C0.869629 25.1338 1.02725 24.9762 1.22119 24.9762H3.26611V18.91C3.26611 18.7161 3.42373 18.5584 3.61768 18.5584H7.53994Z" fill="#6481F1"/>
</svg>
