<svg width="30" height="30" viewBox="0 0 30 30" fill="none" xmlns="http://www.w3.org/2000/svg">
<path opacity="0.4" d="M4.02344 14.5917C9.49536 14.5917 14.9673 9.11975 14.9673 3.64783C14.9673 9.11975 20.4392 14.5917 25.9111 14.5917C20.4392 14.5917 14.9673 20.0636 14.9673 25.5355C14.9673 20.0636 9.49536 14.5917 4.02344 14.5917Z" fill="#050505"/>
<path d="M4.02344 14.5917C9.49536 14.5917 14.9673 9.11975 14.9673 3.64783C14.9673 9.11975 20.4392 14.5917 25.9111 14.5917C20.4392 14.5917 14.9673 20.0636 14.9673 25.5355C14.9673 20.0636 9.49536 14.5917 4.02344 14.5917Z" fill="#050505"/>
<path opacity="0.3" d="M2.80664 23.7116C3.81996 23.7116 5.8466 21.6849 5.8466 20.6716C5.8466 21.6849 7.87324 23.7116 8.88656 23.7116C7.87324 23.7116 5.8466 25.7382 5.8466 26.7515C5.8466 25.7382 3.81996 23.7116 2.80664 23.7116Z" fill="#050505"/>
<path opacity="0.3" d="M19.8301 6.07983C21.0461 6.07983 23.478 3.64787 23.478 2.43188C23.478 3.64787 25.91 6.07983 27.126 6.07983C25.91 6.07983 23.478 8.5118 23.478 9.72778C23.478 8.5118 21.0461 6.07983 19.8301 6.07983Z" fill="#050505"/>
</svg>
