<svg width="73" height="19" viewBox="0 0 73 19" fill="none" xmlns="http://www.w3.org/2000/svg">
<path d="M10.385 1.2V4.176H3.473V8.208H10.121V11.184H3.473V18H0.329V1.2H10.385ZM14.4001 4.008C13.8401 4.008 13.4001 3.856 13.0801 3.552C12.7601 3.248 12.6001 2.832 12.6001 2.304C12.6001 1.76 12.7601 1.336 13.0801 1.032C13.4001 0.728 13.8401 0.576 14.4001 0.576C14.9601 0.576 15.4001 0.728 15.7201 1.032C16.0401 1.336 16.2001 1.76 16.2001 2.304C16.2001 2.816 16.0321 3.232 15.6961 3.552C15.3761 3.856 14.9441 4.008 14.4001 4.008ZM12.8881 18V6H15.8641V18H12.8881ZM24.9367 5.688C25.6407 5.688 26.3527 5.84 27.0727 6.144C27.8087 6.432 28.4327 6.96 28.9447 7.728C29.4727 8.496 29.7367 9.528 29.7367 10.824V18H26.7607V10.824C26.7607 9.928 26.5047 9.288 25.9927 8.904C25.4967 8.504 24.9127 8.304 24.2407 8.304C23.5687 8.304 22.9927 8.544 22.5127 9.024C22.0487 9.488 21.8167 10.24 21.8167 11.28V18H18.8407V6H21.8167V7.008C22.2487 6.608 22.7287 6.288 23.2567 6.048C23.7847 5.808 24.3447 5.688 24.9367 5.688ZM35.0823 14.616C35.0823 14.872 35.1463 15.056 35.2743 15.168C35.4023 15.28 35.6023 15.336 35.8743 15.336C36.0823 15.336 36.3303 15.312 36.6183 15.264V18C36.0263 18.096 35.4743 18.144 34.9623 18.144C34.0343 18.144 33.3223 17.904 32.8263 17.424C32.3463 16.928 32.1063 16.056 32.1063 14.808V1.2H35.0823V14.616ZM47.819 6H50.795V18H47.819V16.824C47.259 17.304 46.643 17.68 45.971 17.952C45.315 18.208 44.619 18.336 43.883 18.336C42.667 18.336 41.603 18.064 40.691 17.52C39.779 16.976 39.075 16.224 38.579 15.264C38.099 14.304 37.859 13.224 37.859 12.024C37.859 10.824 38.099 9.744 38.579 8.784C39.075 7.824 39.779 7.072 40.691 6.528C41.603 5.968 42.667 5.688 43.883 5.688C44.619 5.688 45.315 5.824 45.971 6.096C46.643 6.352 47.259 6.72 47.819 7.2V6ZM44.267 15.48C44.923 15.48 45.515 15.336 46.043 15.048C46.587 14.744 47.011 14.328 47.315 13.8C47.635 13.272 47.795 12.672 47.795 12C47.795 10.992 47.451 10.168 46.763 9.528C46.091 8.888 45.259 8.568 44.267 8.568C43.259 8.568 42.427 8.896 41.771 9.552C41.131 10.192 40.811 11.016 40.811 12.024C40.811 13.032 41.131 13.864 41.771 14.52C42.427 15.16 43.259 15.48 44.267 15.48ZM61.0083 5.688C62.2243 5.688 63.2883 5.968 64.2003 6.528C65.1123 7.072 65.8083 7.824 66.2883 8.784C66.7843 9.744 67.0323 10.824 67.0323 12.024C67.0323 13.224 66.7843 14.304 66.2883 15.264C65.8083 16.224 65.1123 16.976 64.2003 17.52C63.2883 18.064 62.2243 18.336 61.0083 18.336C60.2243 18.336 59.4723 18.184 58.7523 17.88C58.0323 17.576 57.3923 17.152 56.8323 16.608V18H53.8563V1.2H56.8323V7.416C57.3923 6.872 58.0323 6.448 58.7523 6.144C59.4883 5.84 60.2403 5.688 61.0083 5.688ZM60.6243 15.48C61.6323 15.48 62.4563 15.16 63.0963 14.52C63.7523 13.864 64.0803 13.032 64.0803 12.024C64.0803 11.016 63.7523 10.192 63.0963 9.552C62.4563 8.896 61.6323 8.568 60.6243 8.568C59.6323 8.568 58.7923 8.888 58.1043 9.528C57.4323 10.168 57.0963 10.992 57.0963 12C57.0963 12.672 57.2483 13.272 57.5523 13.8C57.8723 14.328 58.2963 14.744 58.8243 15.048C59.3683 15.336 59.9683 15.48 60.6243 15.48ZM69.6984 16.656C69.6984 16.144 69.8344 15.752 70.1064 15.48C70.3944 15.192 70.7944 15.048 71.3064 15.048C71.8184 15.048 72.2104 15.192 72.4824 15.48C72.7544 15.752 72.8904 16.144 72.8904 16.656C72.8904 17.168 72.7544 17.568 72.4824 17.856C72.2104 18.144 71.8184 18.288 71.3064 18.288C70.7944 18.288 70.3944 18.144 70.1064 17.856C69.8344 17.568 69.6984 17.168 69.6984 16.656Z" fill="#050505"/>
</svg>
