<svg width="20" height="21" viewBox="0 0 20 21" fill="none" xmlns="http://www.w3.org/2000/svg">
<path d="M6.32576 2.65362C7.28816 2.15503 8.39159 1.69653 9.74887 1.69653C11.1062 1.69653 12.21 2.15504 13.1729 2.65361C13.4638 2.80424 13.7341 2.95324 13.9924 3.09563C14.6245 3.44414 15.1849 3.75306 15.8 3.94923C16.1611 4.06438 16.4809 4.16637 16.7077 4.25521C16.9212 4.33883 17.1749 4.45343 17.3549 4.65346C17.5166 4.83316 17.5997 5.03492 17.6548 5.2279C17.7048 5.40307 17.7476 5.64028 17.7886 5.86781C17.9357 6.68364 18.0139 7.49315 18.0232 8.28705C18.0258 8.50665 18.0271 8.61645 17.956 8.68839C17.8849 8.76034 17.7723 8.76034 17.5472 8.76034H1.95338C1.72832 8.76034 1.61578 8.76034 1.54468 8.6884C1.47358 8.61647 1.47486 8.50669 1.4774 8.28712C1.48661 7.49322 1.56471 6.68369 1.71182 5.86785C1.75281 5.64034 1.79555 5.4032 1.84554 5.22803C1.90062 5.03507 1.98368 4.83333 2.14537 4.65364C2.32536 4.45359 2.57905 4.33897 2.79252 4.25532C3.01931 4.16645 3.33918 4.0644 3.70027 3.94919C4.31507 3.75303 4.87491 3.4442 5.50658 3.09575C5.76475 2.95333 6.03494 2.80428 6.32576 2.65362Z" fill="#6481F1"/>
<path d="M11.2687 18.7045C10.7441 18.9053 10.3579 19.0533 9.75153 19.0533C9.14518 19.0533 8.75888 18.9054 8.23433 18.7045C5.84211 17.7886 4.08311 16.2281 2.96036 14.2857C2.79105 13.9928 2.7064 13.8464 2.7763 13.7252C2.8462 13.6041 3.02117 13.6041 3.3711 13.6041H16.1307C16.4806 13.6041 16.6555 13.6041 16.7254 13.7252C16.7954 13.8463 16.7107 13.9928 16.5415 14.2857C15.4193 16.228 13.6608 17.7885 11.2687 18.7045Z" fill="#6481F1"/>
<g opacity="0.4">
<path fill-rule="evenodd" clip-rule="evenodd" d="M6.497 9.94687C6.73345 9.71042 7.11681 9.71042 7.35326 9.94687L7.73242 10.326L8.11158 9.94687C8.34803 9.71042 8.7314 9.71042 8.96785 9.94687C9.2043 10.1833 9.2043 10.5667 8.96785 10.8031L8.58868 11.1823L8.96785 11.5615C9.2043 11.7979 9.2043 12.1813 8.96785 12.4177C8.7314 12.6542 8.34803 12.6542 8.11158 12.4177L7.73242 12.0386L7.35326 12.4177C7.11681 12.6542 6.73345 12.6542 6.497 12.4177C6.26055 12.1813 6.26055 11.7979 6.497 11.5615L6.87616 11.1823L6.497 10.8031C6.26055 10.5667 6.26055 10.1833 6.497 9.94687Z" fill="#6481F1"/>
<path fill-rule="evenodd" clip-rule="evenodd" d="M2.46054 9.94687C2.69699 9.71042 3.08035 9.71042 3.3168 9.94687L3.69596 10.326L4.07512 9.94687C4.31157 9.71042 4.69494 9.71042 4.93139 9.94687C5.16784 10.1833 5.16784 10.5667 4.93139 10.8031L4.55223 11.1823L4.93139 11.5615C5.16784 11.7979 5.16784 12.1813 4.93139 12.4177C4.69494 12.6542 4.31157 12.6542 4.07512 12.4177L3.69596 12.0386L3.3168 12.4177C3.08035 12.6542 2.69699 12.6542 2.46054 12.4177C2.22409 12.1813 2.22409 11.7979 2.46054 11.5615L2.8397 11.1823L2.46054 10.8031C2.22409 10.5667 2.22409 10.1833 2.46054 9.94687Z" fill="#6481F1"/>
<path fill-rule="evenodd" clip-rule="evenodd" d="M10.5335 9.94687C10.7699 9.71042 11.1533 9.71042 11.3897 9.94687L11.7689 10.326L12.148 9.94687C12.3845 9.71042 12.7679 9.71042 13.0043 9.94687C13.2408 10.1833 13.2408 10.5667 13.0043 10.8031L12.6251 11.1823L13.0043 11.5615C13.2408 11.7979 13.2408 12.1813 13.0043 12.4177C12.7679 12.6542 12.3845 12.6542 12.148 12.4177L11.7689 12.0386L11.3897 12.4177C11.1533 12.6542 10.7699 12.6542 10.5335 12.4177C10.297 12.1813 10.297 11.7979 10.5335 11.5615L10.9126 11.1823L10.5335 10.8031C10.297 10.5667 10.297 10.1833 10.5335 9.94687Z" fill="#6481F1"/>
<path fill-rule="evenodd" clip-rule="evenodd" d="M14.5699 9.94687C14.8064 9.71042 15.1897 9.71042 15.4262 9.94687L15.8053 10.326L16.1845 9.94687C16.4209 9.71042 16.8043 9.71042 17.0408 9.94687C17.2772 10.1833 17.2772 10.5667 17.0408 10.8031L16.6616 11.1823L17.0408 11.5615C17.2772 11.7979 17.2772 12.1813 17.0408 12.4177C16.8043 12.6542 16.4209 12.6542 16.1845 12.4177L15.8053 12.0386L15.4262 12.4177C15.1897 12.6542 14.8064 12.6542 14.5699 12.4177C14.3335 12.1813 14.3335 11.7979 14.5699 11.5615L14.9491 11.1823L14.5699 10.8031C14.3335 10.5667 14.3335 10.1833 14.5699 9.94687Z" fill="#6481F1"/>
</g>
</svg>
