<svg width="30" height="30" viewBox="0 0 30 30" fill="none" xmlns="http://www.w3.org/2000/svg">
<path opacity="0.4" d="M4.24219 15.2167C9.71411 15.2167 15.186 9.74475 15.186 4.27283C15.186 9.74475 20.658 15.2167 26.1299 15.2167C20.658 15.2167 15.186 20.6886 15.186 26.1605C15.186 20.6886 9.71411 15.2167 4.24219 15.2167Z" fill="#6481F1"/>
<path d="M4.24219 15.2167C9.71411 15.2167 15.186 9.74475 15.186 4.27283C15.186 9.74475 20.658 15.2167 26.1299 15.2167C20.658 15.2167 15.186 20.6886 15.186 26.1605C15.186 20.6886 9.71411 15.2167 4.24219 15.2167Z" fill="#6481F1"/>
<path opacity="0.3" d="M3.02539 24.3366C4.03871 24.3366 6.06535 22.3099 6.06535 21.2966C6.06535 22.3099 8.09199 24.3366 9.10531 24.3366C8.09199 24.3366 6.06535 26.3632 6.06535 27.3765C6.06535 26.3632 4.03871 24.3366 3.02539 24.3366Z" fill="#6481F1"/>
<path opacity="0.3" d="M20.0488 6.70483C21.2648 6.70483 23.6968 4.27287 23.6968 3.05688C23.6968 4.27287 26.1287 6.70483 27.3447 6.70483C26.1287 6.70483 23.6968 9.1368 23.6968 10.3528C23.6968 9.1368 21.2648 6.70483 20.0488 6.70483Z" fill="#6481F1"/>
</svg>
