<svg width="31" height="30" viewBox="0 0 31 30" fill="none" xmlns="http://www.w3.org/2000/svg">
<path opacity="0.4" d="M4.49219 15.4042C9.96411 15.4042 15.436 9.93225 15.436 4.46033C15.436 9.93225 20.908 15.4042 26.3799 15.4042C20.908 15.4042 15.436 20.8761 15.436 26.348C15.436 20.8761 9.96411 15.4042 4.49219 15.4042Z" fill="white"/>
<path d="M4.49219 15.4042C9.96411 15.4042 15.436 9.93225 15.436 4.46033C15.436 9.93225 20.908 15.4042 26.3799 15.4042C20.908 15.4042 15.436 20.8761 15.436 26.348C15.436 20.8761 9.96411 15.4042 4.49219 15.4042Z" fill="white"/>
<path opacity="0.3" d="M3.27539 24.5241C4.28871 24.5241 6.31535 22.4974 6.31535 21.4841C6.31535 22.4974 8.34199 24.5241 9.35531 24.5241C8.34199 24.5241 6.31535 26.5507 6.31535 27.564C6.31535 26.5507 4.28871 24.5241 3.27539 24.5241Z" fill="white"/>
<path opacity="0.3" d="M20.2988 6.89233C21.5148 6.89233 23.9468 4.46037 23.9468 3.24438C23.9468 4.46037 26.3787 6.89233 27.5947 6.89233C26.3787 6.89233 23.9468 9.3243 23.9468 10.5403C23.9468 9.3243 21.5148 6.89233 20.2988 6.89233Z" fill="white"/>
</svg>
