<svg width="49" height="49" viewBox="0 0 49 49" fill="none" xmlns="http://www.w3.org/2000/svg">
<g clip-path="url(#clip0_405_464)">
<path d="M24.5731 48.0624C37.7562 48.0624 48.4431 37.3754 48.4431 24.1924C48.4431 11.0094 37.7562 0.322388 24.5731 0.322388C11.3901 0.322388 0.703125 11.0094 0.703125 24.1924C0.703125 37.3754 11.3901 48.0624 24.5731 48.0624Z" fill="#F0F0F0"/>
<path d="M14.1953 32.495L16.271 46.5779C18.8568 47.5375 21.6538 48.0624 24.5735 48.0624C34.8367 48.0624 43.5862 41.5847 46.9588 32.495H14.1953Z" fill="black"/>
<path d="M14.1953 15.8898L16.271 1.8069C18.8568 0.847341 21.6538 0.322388 24.5735 0.322388C34.8367 0.322388 43.5862 6.80011 46.9588 15.8898H14.1953Z" fill="#6DA544"/>
<path d="M0.703125 24.1924C0.703125 34.4557 7.18094 43.2051 16.2706 46.5777V1.80713C7.18094 5.17979 0.703125 13.9292 0.703125 24.1924Z" fill="#A2001D"/>
</g>
<defs>
<clipPath id="clip0_405_464">
<rect width="47.74" height="47.74" fill="white" transform="translate(0.703125 0.322388)"/>
</clipPath>
</defs>
</svg>
