<svg width="49" height="49" viewBox="0 0 49 49" fill="none" xmlns="http://www.w3.org/2000/svg">
<g clip-path="url(#clip0_405_470)">
<path d="M24.3759 48.0624C37.5589 48.0624 48.2459 37.3754 48.2459 24.1924C48.2459 11.0094 37.5589 0.322388 24.3759 0.322388C11.1928 0.322388 0.505859 11.0094 0.505859 24.1924C0.505859 37.3754 11.1928 48.0624 24.3759 48.0624Z" fill="#F0F0F0"/>
<path d="M48.2453 24.1924C48.2453 11.0094 37.5582 0.322388 24.3753 0.322388C19.7057 0.322388 15.35 1.66461 11.6708 3.98224L16.9029 6.20522L9.8457 9.20371L16.9029 12.2021L9.8457 15.2004L16.9029 18.1986L9.8457 21.1964L16.9029 24.1941L9.8457 27.1924L16.9029 30.1905L9.8457 33.1883L16.9029 36.1864L9.8457 39.1847L16.9029 42.1825L11.6732 44.4043C15.3518 46.7208 19.7066 48.0624 24.3753 48.0624C37.5582 48.0624 48.2453 37.3753 48.2453 24.1924Z" fill="#751A46"/>
</g>
<defs>
<clipPath id="clip0_405_470">
<rect width="47.74" height="47.74" fill="white" transform="translate(0.505859 0.322388)"/>
</clipPath>
</defs>
</svg>
