<svg width="49" height="49" viewBox="0 0 49 49" fill="none" xmlns="http://www.w3.org/2000/svg">
<g clip-path="url(#clip0_405_474)">
<path d="M24.3778 48.0624C37.5609 48.0624 48.2478 37.3754 48.2478 24.1924C48.2478 11.0094 37.5609 0.322388 24.3778 0.322388C11.1948 0.322388 0.507812 11.0094 0.507812 24.1924C0.507812 37.3754 11.1948 48.0624 24.3778 48.0624Z" fill="#F0F0F0"/>
<path d="M48.2471 24.1923C48.2471 13.9292 41.7694 5.1797 32.6797 1.80713V46.5778C41.7694 43.205 48.2471 34.4557 48.2471 24.1923Z" fill="#FF9811"/>
<path d="M0.507812 24.1923C0.507812 34.4557 6.98553 43.205 16.0752 46.5777V1.80713C6.98553 5.1797 0.507812 13.9292 0.507812 24.1923Z" fill="#6DA544"/>
</g>
<defs>
<clipPath id="clip0_405_474">
<rect width="47.74" height="47.74" fill="white" transform="translate(0.507812 0.322388)"/>
</clipPath>
</defs>
</svg>
