<svg width="49" height="49" viewBox="0 0 49 49" fill="none" xmlns="http://www.w3.org/2000/svg">
<g clip-path="url(#clip0_405_448)">
<path d="M24.7704 48.0624C37.9534 48.0624 48.6404 37.3754 48.6404 24.1924C48.6404 11.0094 37.9534 0.322388 24.7704 0.322388C11.5874 0.322388 0.900391 11.0094 0.900391 24.1924C0.900391 37.3754 11.5874 48.0624 24.7704 48.0624Z" fill="#F0F0F0"/>
<path d="M23.7324 24.1923H48.6402C48.6402 22.0379 48.353 19.9507 47.8179 17.9653H23.7324V24.1923Z" fill="#D80027"/>
<path d="M23.7324 11.7385H45.1367C43.6755 9.35408 41.8072 7.24653 39.6289 5.51147H23.7324V11.7385Z" fill="#D80027"/>
<path d="M24.7708 48.0624C30.3886 48.0624 35.552 46.1207 39.6295 42.8733H9.91211C13.9896 46.1207 19.1531 48.0624 24.7708 48.0624Z" fill="#D80027"/>
<path d="M4.40384 36.6463H45.1369C46.31 34.7321 47.2197 32.6398 47.8181 30.4193H1.72266C2.32099 32.6398 3.23076 34.7321 4.40384 36.6463Z" fill="#D80027"/>
<path d="M11.9574 4.05002H14.1327L12.1093 5.51999L12.8822 7.8985L10.8589 6.42854L8.83567 7.8985L9.50329 5.84372C7.7218 7.32767 6.16037 9.06627 4.87363 11.0035H5.57061L4.28266 11.9392C4.082 12.2739 3.88955 12.6139 3.70512 12.959L4.32014 14.8519L3.1727 14.0183C2.88748 14.6226 2.62658 15.2405 2.39208 15.8713L3.06967 17.9569H5.57061L3.54726 19.4269L4.32014 21.8054L2.29688 20.3354L1.08492 21.216C0.963609 22.1911 0.900391 23.1843 0.900391 24.1924H24.7704C24.7704 11.0094 24.7704 9.45527 24.7704 0.322388C20.0549 0.322388 15.6592 1.69025 11.9574 4.05002ZM12.8822 21.8054L10.8589 20.3354L8.83567 21.8054L9.60856 19.4269L7.5852 17.9569H10.0861L10.8589 15.5784L11.6317 17.9569H14.1327L12.1093 19.4269L12.8822 21.8054ZM12.1093 12.4734L12.8822 14.8519L10.8589 13.382L8.83567 14.8519L9.60856 12.4734L7.5852 11.0035H10.0861L10.8589 8.62495L11.6317 11.0035H14.1327L12.1093 12.4734ZM21.4443 21.8054L19.421 20.3354L17.3977 21.8054L18.1706 19.4269L16.1473 17.9569H18.6482L19.421 15.5784L20.1938 17.9569H22.6947L20.6714 19.4269L21.4443 21.8054ZM20.6714 12.4734L21.4443 14.8519L19.421 13.382L17.3977 14.8519L18.1706 12.4734L16.1473 11.0035H18.6482L19.421 8.62495L20.1938 11.0035H22.6947L20.6714 12.4734ZM20.6714 5.51999L21.4443 7.8985L19.421 6.42854L17.3977 7.8985L18.1706 5.51999L16.1473 4.05002H18.6482L19.421 1.67151L20.1938 4.05002H22.6947L20.6714 5.51999Z" fill="#0052B4"/>
</g>
<defs>
<clipPath id="clip0_405_448">
<rect width="47.74" height="47.74" fill="white" transform="translate(0.900391 0.322388)"/>
</clipPath>
</defs>
</svg>
