<svg width="49" height="49" viewBox="0 0 49 49" fill="none" xmlns="http://www.w3.org/2000/svg">
<g clip-path="url(#clip0_405_479)">
<path d="M24.1786 48.0624C37.3616 48.0624 48.0486 37.3754 48.0486 24.1924C48.0486 11.0094 37.3616 0.322388 24.1786 0.322388C10.9956 0.322388 0.308594 11.0094 0.308594 24.1924C0.308594 37.3754 10.9956 48.0624 24.1786 48.0624Z" fill="#F0F0F0"/>
<path d="M7.29994 41.0711C-2.02185 31.7492 -2.02185 16.6356 7.29994 7.31372C7.29929 7.31475 21.0652 24.1924 21.0652 24.1924L7.29994 41.0711Z" fill="black"/>
<path d="M21.0654 24.1923L3.47472 12.3052C2.92935 13.2532 2.44841 14.2427 2.03516 15.2668L10.9406 24.1924L2.03544 33.1185C2.44831 34.1419 2.92879 35.1308 3.47379 36.0781L21.0654 24.1923Z" fill="#FFDA44"/>
<path d="M47.8457 21.079H21.0636L7.29885 7.31409C5.81555 8.79738 4.52685 10.4749 3.47359 12.3053L15.3376 24.1924L3.47266 36.078C4.52592 37.9089 5.81518 39.587 7.29885 41.0707L21.0636 27.3059H47.8457C47.9784 26.2867 48.0477 25.2476 48.0477 24.1924C48.0477 23.1372 47.9784 22.0981 47.8457 21.079Z" fill="#6DA544"/>
<path d="M9.64648 43.1278C13.6717 46.2217 18.7102 48.0624 24.1794 48.0624C35.208 48.0624 44.488 40.5825 47.2271 30.4194H22.3549L9.64648 43.1278Z" fill="#0052B4"/>
<path d="M47.2271 17.9654C44.488 7.80237 35.208 0.322388 24.1794 0.322388C18.7102 0.322388 13.6717 2.16308 9.64648 5.25704L22.3548 17.9654H47.2271Z" fill="#D80027"/>
</g>
<defs>
<clipPath id="clip0_405_479">
<rect width="47.74" height="47.74" fill="white" transform="translate(0.308594 0.322388)"/>
</clipPath>
</defs>
</svg>
